M48
;GenerationSoftware,Autodesk,EAGLE,9.0.0*%
;CreationDate,2018-07-10T22:09:29Z*%
FMAT,2
ICI,OFF
METRIC,TZ,000.000
T2C0.813
T1C1.016
%
G90
M71
T1
X33020Y19050
X33020Y10160
X33020Y13970
X33020Y22860
T2
X26670Y10160
X29210Y10160
X15240Y17780
X15240Y15240
X22860Y15240
X22860Y17780
X15240Y12700
X15240Y10160
X22860Y12700
X22860Y10160
X17780Y5080
X20320Y5080
X27940Y17780
X11430Y7620
X11430Y5080
X27940Y15240
X8890Y15240
X24130Y22860
X13970Y22860
X3810Y3810
X3810Y13970
X30480Y25400
X20320Y25400
X3810Y26670
X3810Y16510
X7620Y25400
X17780Y25400
X11430Y15240
X11430Y2540
M30