G04 EAGLE Gerber X2 export*
%TF.Part,Single*%
%TF.FileFunction,Legend,Top,1*%
%TF.FilePolarity,Positive*%
%TF.GenerationSoftware,Autodesk,EAGLE,9.0.0*%
%TF.CreationDate,2018-07-10T22:09:29Z*%
G75*
%MOMM*%
%FSLAX34Y34*%
%LPD*%
%AMOC8*
5,1,8,0,0,1.08239X$1,22.5*%
G01*
%ADD10C,0.152400*%
%ADD11C,0.127000*%
%ADD12C,0.304800*%
%ADD13C,0.203200*%
%ADD14C,0.254000*%
%ADD15R,0.863600X0.609600*%
%ADD16R,0.609600X0.863600*%


D10*
X266700Y144780D02*
X266700Y148590D01*
X270510Y148590D01*
X266700Y148590D02*
X266700Y152400D01*
X266700Y148590D02*
X262890Y148590D01*
X251460Y165100D02*
X251468Y165786D01*
X251494Y166471D01*
X251536Y167155D01*
X251595Y167839D01*
X251670Y168520D01*
X251762Y169200D01*
X251871Y169877D01*
X251997Y170551D01*
X252139Y171222D01*
X252297Y171889D01*
X252472Y172552D01*
X252663Y173211D01*
X252870Y173864D01*
X253093Y174513D01*
X253332Y175155D01*
X253587Y175792D01*
X253857Y176422D01*
X254143Y177046D01*
X254443Y177662D01*
X254759Y178271D01*
X255090Y178872D01*
X255435Y179464D01*
X255795Y180048D01*
X256169Y180623D01*
X256557Y181188D01*
X256958Y181744D01*
X257374Y182290D01*
X257802Y182825D01*
X258244Y183350D01*
X258698Y183863D01*
X259165Y184366D01*
X259643Y184857D01*
X260134Y185335D01*
X260637Y185802D01*
X261150Y186256D01*
X261675Y186698D01*
X262210Y187126D01*
X262756Y187542D01*
X263312Y187943D01*
X263877Y188331D01*
X264452Y188705D01*
X265036Y189065D01*
X265628Y189410D01*
X266229Y189741D01*
X266838Y190057D01*
X267454Y190357D01*
X268078Y190643D01*
X268708Y190913D01*
X269345Y191168D01*
X269987Y191407D01*
X270636Y191630D01*
X271289Y191837D01*
X271948Y192028D01*
X272611Y192203D01*
X273278Y192361D01*
X273949Y192503D01*
X274623Y192629D01*
X275300Y192738D01*
X275980Y192830D01*
X276661Y192905D01*
X277345Y192964D01*
X278029Y193006D01*
X278714Y193032D01*
X279400Y193040D01*
X280086Y193032D01*
X280771Y193006D01*
X281455Y192964D01*
X282139Y192905D01*
X282820Y192830D01*
X283500Y192738D01*
X284177Y192629D01*
X284851Y192503D01*
X285522Y192361D01*
X286189Y192203D01*
X286852Y192028D01*
X287511Y191837D01*
X288164Y191630D01*
X288813Y191407D01*
X289455Y191168D01*
X290092Y190913D01*
X290722Y190643D01*
X291346Y190357D01*
X291962Y190057D01*
X292571Y189741D01*
X293172Y189410D01*
X293764Y189065D01*
X294348Y188705D01*
X294923Y188331D01*
X295488Y187943D01*
X296044Y187542D01*
X296590Y187126D01*
X297125Y186698D01*
X297650Y186256D01*
X298163Y185802D01*
X298666Y185335D01*
X299157Y184857D01*
X299635Y184366D01*
X300102Y183863D01*
X300556Y183350D01*
X300998Y182825D01*
X301426Y182290D01*
X301842Y181744D01*
X302243Y181188D01*
X302631Y180623D01*
X303005Y180048D01*
X303365Y179464D01*
X303710Y178872D01*
X304041Y178271D01*
X304357Y177662D01*
X304657Y177046D01*
X304943Y176422D01*
X305213Y175792D01*
X305468Y175155D01*
X305707Y174513D01*
X305930Y173864D01*
X306137Y173211D01*
X306328Y172552D01*
X306503Y171889D01*
X306661Y171222D01*
X306803Y170551D01*
X306929Y169877D01*
X307038Y169200D01*
X307130Y168520D01*
X307205Y167839D01*
X307264Y167155D01*
X307306Y166471D01*
X307332Y165786D01*
X307340Y165100D01*
X307332Y164414D01*
X307306Y163729D01*
X307264Y163045D01*
X307205Y162361D01*
X307130Y161680D01*
X307038Y161000D01*
X306929Y160323D01*
X306803Y159649D01*
X306661Y158978D01*
X306503Y158311D01*
X306328Y157648D01*
X306137Y156989D01*
X305930Y156336D01*
X305707Y155687D01*
X305468Y155045D01*
X305213Y154408D01*
X304943Y153778D01*
X304657Y153154D01*
X304357Y152538D01*
X304041Y151929D01*
X303710Y151328D01*
X303365Y150736D01*
X303005Y150152D01*
X302631Y149577D01*
X302243Y149012D01*
X301842Y148456D01*
X301426Y147910D01*
X300998Y147375D01*
X300556Y146850D01*
X300102Y146337D01*
X299635Y145834D01*
X299157Y145343D01*
X298666Y144865D01*
X298163Y144398D01*
X297650Y143944D01*
X297125Y143502D01*
X296590Y143074D01*
X296044Y142658D01*
X295488Y142257D01*
X294923Y141869D01*
X294348Y141495D01*
X293764Y141135D01*
X293172Y140790D01*
X292571Y140459D01*
X291962Y140143D01*
X291346Y139843D01*
X290722Y139557D01*
X290092Y139287D01*
X289455Y139032D01*
X288813Y138793D01*
X288164Y138570D01*
X287511Y138363D01*
X286852Y138172D01*
X286189Y137997D01*
X285522Y137839D01*
X284851Y137697D01*
X284177Y137571D01*
X283500Y137462D01*
X282820Y137370D01*
X282139Y137295D01*
X281455Y137236D01*
X280771Y137194D01*
X280086Y137168D01*
X279400Y137160D01*
X278714Y137168D01*
X278029Y137194D01*
X277345Y137236D01*
X276661Y137295D01*
X275980Y137370D01*
X275300Y137462D01*
X274623Y137571D01*
X273949Y137697D01*
X273278Y137839D01*
X272611Y137997D01*
X271948Y138172D01*
X271289Y138363D01*
X270636Y138570D01*
X269987Y138793D01*
X269345Y139032D01*
X268708Y139287D01*
X268078Y139557D01*
X267454Y139843D01*
X266838Y140143D01*
X266229Y140459D01*
X265628Y140790D01*
X265036Y141135D01*
X264452Y141495D01*
X263877Y141869D01*
X263312Y142257D01*
X262756Y142658D01*
X262210Y143074D01*
X261675Y143502D01*
X261150Y143944D01*
X260637Y144398D01*
X260134Y144865D01*
X259643Y145343D01*
X259165Y145834D01*
X258698Y146337D01*
X258244Y146850D01*
X257802Y147375D01*
X257374Y147910D01*
X256958Y148456D01*
X256557Y149012D01*
X256169Y149577D01*
X255795Y150152D01*
X255435Y150736D01*
X255090Y151328D01*
X254759Y151929D01*
X254443Y152538D01*
X254143Y153154D01*
X253857Y153778D01*
X253587Y154408D01*
X253332Y155045D01*
X253093Y155687D01*
X252870Y156336D01*
X252663Y156989D01*
X252472Y157648D01*
X252297Y158311D01*
X252139Y158978D01*
X251997Y159649D01*
X251871Y160323D01*
X251762Y161000D01*
X251670Y161680D01*
X251595Y162361D01*
X251536Y163045D01*
X251494Y163729D01*
X251468Y164414D01*
X251460Y165100D01*
D11*
X263525Y194945D02*
X263525Y197485D01*
X263525Y194945D02*
X263523Y194845D01*
X263517Y194746D01*
X263507Y194646D01*
X263494Y194548D01*
X263476Y194449D01*
X263455Y194352D01*
X263430Y194256D01*
X263401Y194160D01*
X263368Y194066D01*
X263332Y193973D01*
X263292Y193882D01*
X263248Y193792D01*
X263201Y193704D01*
X263151Y193618D01*
X263097Y193534D01*
X263040Y193452D01*
X262980Y193373D01*
X262916Y193295D01*
X262850Y193221D01*
X262781Y193149D01*
X262709Y193080D01*
X262635Y193014D01*
X262557Y192950D01*
X262478Y192890D01*
X262396Y192833D01*
X262312Y192779D01*
X262226Y192729D01*
X262138Y192682D01*
X262048Y192638D01*
X261957Y192598D01*
X261864Y192562D01*
X261770Y192529D01*
X261674Y192500D01*
X261578Y192475D01*
X261481Y192454D01*
X261382Y192436D01*
X261284Y192423D01*
X261184Y192413D01*
X261085Y192407D01*
X260985Y192405D01*
X254635Y192405D01*
X254535Y192407D01*
X254436Y192413D01*
X254336Y192423D01*
X254238Y192436D01*
X254139Y192454D01*
X254042Y192475D01*
X253946Y192500D01*
X253850Y192529D01*
X253756Y192562D01*
X253663Y192598D01*
X253572Y192638D01*
X253482Y192682D01*
X253394Y192729D01*
X253308Y192779D01*
X253224Y192833D01*
X253142Y192890D01*
X253063Y192950D01*
X252985Y193014D01*
X252911Y193080D01*
X252839Y193149D01*
X252770Y193221D01*
X252704Y193295D01*
X252640Y193373D01*
X252580Y193452D01*
X252523Y193534D01*
X252469Y193618D01*
X252419Y193704D01*
X252372Y193792D01*
X252328Y193882D01*
X252288Y193973D01*
X252252Y194066D01*
X252219Y194160D01*
X252190Y194256D01*
X252165Y194352D01*
X252144Y194449D01*
X252126Y194548D01*
X252113Y194646D01*
X252103Y194746D01*
X252097Y194845D01*
X252095Y194945D01*
X252095Y197485D01*
X254635Y201967D02*
X252095Y205142D01*
X263525Y205142D01*
X263525Y201967D02*
X263525Y208317D01*
D10*
X121920Y139700D02*
X118110Y139700D01*
X118110Y143510D01*
X118110Y139700D02*
X114300Y139700D01*
X118110Y139700D02*
X118110Y135890D01*
X73660Y152400D02*
X73668Y153086D01*
X73694Y153771D01*
X73736Y154455D01*
X73795Y155139D01*
X73870Y155820D01*
X73962Y156500D01*
X74071Y157177D01*
X74197Y157851D01*
X74339Y158522D01*
X74497Y159189D01*
X74672Y159852D01*
X74863Y160511D01*
X75070Y161164D01*
X75293Y161813D01*
X75532Y162455D01*
X75787Y163092D01*
X76057Y163722D01*
X76343Y164346D01*
X76643Y164962D01*
X76959Y165571D01*
X77290Y166172D01*
X77635Y166764D01*
X77995Y167348D01*
X78369Y167923D01*
X78757Y168488D01*
X79158Y169044D01*
X79574Y169590D01*
X80002Y170125D01*
X80444Y170650D01*
X80898Y171163D01*
X81365Y171666D01*
X81843Y172157D01*
X82334Y172635D01*
X82837Y173102D01*
X83350Y173556D01*
X83875Y173998D01*
X84410Y174426D01*
X84956Y174842D01*
X85512Y175243D01*
X86077Y175631D01*
X86652Y176005D01*
X87236Y176365D01*
X87828Y176710D01*
X88429Y177041D01*
X89038Y177357D01*
X89654Y177657D01*
X90278Y177943D01*
X90908Y178213D01*
X91545Y178468D01*
X92187Y178707D01*
X92836Y178930D01*
X93489Y179137D01*
X94148Y179328D01*
X94811Y179503D01*
X95478Y179661D01*
X96149Y179803D01*
X96823Y179929D01*
X97500Y180038D01*
X98180Y180130D01*
X98861Y180205D01*
X99545Y180264D01*
X100229Y180306D01*
X100914Y180332D01*
X101600Y180340D01*
X102286Y180332D01*
X102971Y180306D01*
X103655Y180264D01*
X104339Y180205D01*
X105020Y180130D01*
X105700Y180038D01*
X106377Y179929D01*
X107051Y179803D01*
X107722Y179661D01*
X108389Y179503D01*
X109052Y179328D01*
X109711Y179137D01*
X110364Y178930D01*
X111013Y178707D01*
X111655Y178468D01*
X112292Y178213D01*
X112922Y177943D01*
X113546Y177657D01*
X114162Y177357D01*
X114771Y177041D01*
X115372Y176710D01*
X115964Y176365D01*
X116548Y176005D01*
X117123Y175631D01*
X117688Y175243D01*
X118244Y174842D01*
X118790Y174426D01*
X119325Y173998D01*
X119850Y173556D01*
X120363Y173102D01*
X120866Y172635D01*
X121357Y172157D01*
X121835Y171666D01*
X122302Y171163D01*
X122756Y170650D01*
X123198Y170125D01*
X123626Y169590D01*
X124042Y169044D01*
X124443Y168488D01*
X124831Y167923D01*
X125205Y167348D01*
X125565Y166764D01*
X125910Y166172D01*
X126241Y165571D01*
X126557Y164962D01*
X126857Y164346D01*
X127143Y163722D01*
X127413Y163092D01*
X127668Y162455D01*
X127907Y161813D01*
X128130Y161164D01*
X128337Y160511D01*
X128528Y159852D01*
X128703Y159189D01*
X128861Y158522D01*
X129003Y157851D01*
X129129Y157177D01*
X129238Y156500D01*
X129330Y155820D01*
X129405Y155139D01*
X129464Y154455D01*
X129506Y153771D01*
X129532Y153086D01*
X129540Y152400D01*
X129532Y151714D01*
X129506Y151029D01*
X129464Y150345D01*
X129405Y149661D01*
X129330Y148980D01*
X129238Y148300D01*
X129129Y147623D01*
X129003Y146949D01*
X128861Y146278D01*
X128703Y145611D01*
X128528Y144948D01*
X128337Y144289D01*
X128130Y143636D01*
X127907Y142987D01*
X127668Y142345D01*
X127413Y141708D01*
X127143Y141078D01*
X126857Y140454D01*
X126557Y139838D01*
X126241Y139229D01*
X125910Y138628D01*
X125565Y138036D01*
X125205Y137452D01*
X124831Y136877D01*
X124443Y136312D01*
X124042Y135756D01*
X123626Y135210D01*
X123198Y134675D01*
X122756Y134150D01*
X122302Y133637D01*
X121835Y133134D01*
X121357Y132643D01*
X120866Y132165D01*
X120363Y131698D01*
X119850Y131244D01*
X119325Y130802D01*
X118790Y130374D01*
X118244Y129958D01*
X117688Y129557D01*
X117123Y129169D01*
X116548Y128795D01*
X115964Y128435D01*
X115372Y128090D01*
X114771Y127759D01*
X114162Y127443D01*
X113546Y127143D01*
X112922Y126857D01*
X112292Y126587D01*
X111655Y126332D01*
X111013Y126093D01*
X110364Y125870D01*
X109711Y125663D01*
X109052Y125472D01*
X108389Y125297D01*
X107722Y125139D01*
X107051Y124997D01*
X106377Y124871D01*
X105700Y124762D01*
X105020Y124670D01*
X104339Y124595D01*
X103655Y124536D01*
X102971Y124494D01*
X102286Y124468D01*
X101600Y124460D01*
X100914Y124468D01*
X100229Y124494D01*
X99545Y124536D01*
X98861Y124595D01*
X98180Y124670D01*
X97500Y124762D01*
X96823Y124871D01*
X96149Y124997D01*
X95478Y125139D01*
X94811Y125297D01*
X94148Y125472D01*
X93489Y125663D01*
X92836Y125870D01*
X92187Y126093D01*
X91545Y126332D01*
X90908Y126587D01*
X90278Y126857D01*
X89654Y127143D01*
X89038Y127443D01*
X88429Y127759D01*
X87828Y128090D01*
X87236Y128435D01*
X86652Y128795D01*
X86077Y129169D01*
X85512Y129557D01*
X84956Y129958D01*
X84410Y130374D01*
X83875Y130802D01*
X83350Y131244D01*
X82837Y131698D01*
X82334Y132165D01*
X81843Y132643D01*
X81365Y133134D01*
X80898Y133637D01*
X80444Y134150D01*
X80002Y134675D01*
X79574Y135210D01*
X79158Y135756D01*
X78757Y136312D01*
X78369Y136877D01*
X77995Y137452D01*
X77635Y138036D01*
X77290Y138628D01*
X76959Y139229D01*
X76643Y139838D01*
X76343Y140454D01*
X76057Y141078D01*
X75787Y141708D01*
X75532Y142345D01*
X75293Y142987D01*
X75070Y143636D01*
X74863Y144289D01*
X74672Y144948D01*
X74497Y145611D01*
X74339Y146278D01*
X74197Y146949D01*
X74071Y147623D01*
X73962Y148300D01*
X73870Y148980D01*
X73795Y149661D01*
X73736Y150345D01*
X73694Y151029D01*
X73668Y151714D01*
X73660Y152400D01*
D11*
X63463Y125095D02*
X60923Y125095D01*
X60823Y125097D01*
X60724Y125103D01*
X60624Y125113D01*
X60526Y125126D01*
X60427Y125144D01*
X60330Y125165D01*
X60234Y125190D01*
X60138Y125219D01*
X60044Y125252D01*
X59951Y125288D01*
X59860Y125328D01*
X59770Y125372D01*
X59682Y125419D01*
X59596Y125469D01*
X59512Y125523D01*
X59430Y125580D01*
X59351Y125640D01*
X59273Y125704D01*
X59199Y125770D01*
X59127Y125839D01*
X59058Y125911D01*
X58992Y125985D01*
X58928Y126063D01*
X58868Y126142D01*
X58811Y126224D01*
X58757Y126308D01*
X58707Y126394D01*
X58660Y126482D01*
X58616Y126572D01*
X58576Y126663D01*
X58540Y126756D01*
X58507Y126850D01*
X58478Y126946D01*
X58453Y127042D01*
X58432Y127139D01*
X58414Y127238D01*
X58401Y127336D01*
X58391Y127436D01*
X58385Y127535D01*
X58383Y127635D01*
X58383Y133985D01*
X58385Y134085D01*
X58391Y134184D01*
X58401Y134284D01*
X58414Y134382D01*
X58432Y134481D01*
X58453Y134578D01*
X58478Y134674D01*
X58507Y134770D01*
X58540Y134864D01*
X58576Y134957D01*
X58616Y135048D01*
X58660Y135138D01*
X58707Y135226D01*
X58757Y135312D01*
X58811Y135396D01*
X58868Y135478D01*
X58928Y135557D01*
X58992Y135635D01*
X59058Y135709D01*
X59127Y135781D01*
X59199Y135850D01*
X59273Y135916D01*
X59351Y135980D01*
X59430Y136040D01*
X59512Y136097D01*
X59596Y136151D01*
X59682Y136201D01*
X59770Y136248D01*
X59860Y136292D01*
X59951Y136332D01*
X60044Y136368D01*
X60138Y136401D01*
X60234Y136430D01*
X60330Y136455D01*
X60427Y136476D01*
X60526Y136494D01*
X60624Y136507D01*
X60724Y136517D01*
X60823Y136523D01*
X60923Y136525D01*
X63463Y136525D01*
X71438Y136526D02*
X71542Y136524D01*
X71647Y136518D01*
X71751Y136509D01*
X71854Y136496D01*
X71957Y136478D01*
X72059Y136458D01*
X72161Y136433D01*
X72261Y136405D01*
X72361Y136373D01*
X72459Y136337D01*
X72556Y136298D01*
X72651Y136256D01*
X72745Y136210D01*
X72837Y136160D01*
X72927Y136108D01*
X73015Y136052D01*
X73101Y135992D01*
X73185Y135930D01*
X73266Y135865D01*
X73345Y135797D01*
X73422Y135725D01*
X73495Y135652D01*
X73567Y135575D01*
X73635Y135496D01*
X73700Y135415D01*
X73762Y135331D01*
X73822Y135245D01*
X73878Y135157D01*
X73930Y135067D01*
X73980Y134975D01*
X74026Y134881D01*
X74068Y134786D01*
X74107Y134689D01*
X74143Y134591D01*
X74175Y134491D01*
X74203Y134391D01*
X74228Y134289D01*
X74248Y134187D01*
X74266Y134084D01*
X74279Y133981D01*
X74288Y133877D01*
X74294Y133772D01*
X74296Y133668D01*
X71438Y136525D02*
X71320Y136523D01*
X71201Y136517D01*
X71083Y136508D01*
X70966Y136495D01*
X70849Y136477D01*
X70732Y136457D01*
X70616Y136432D01*
X70501Y136404D01*
X70388Y136371D01*
X70275Y136336D01*
X70163Y136296D01*
X70053Y136254D01*
X69944Y136207D01*
X69836Y136157D01*
X69731Y136104D01*
X69627Y136047D01*
X69525Y135987D01*
X69425Y135924D01*
X69327Y135857D01*
X69231Y135788D01*
X69138Y135715D01*
X69047Y135639D01*
X68958Y135561D01*
X68872Y135479D01*
X68789Y135395D01*
X68708Y135309D01*
X68631Y135219D01*
X68556Y135128D01*
X68484Y135034D01*
X68415Y134937D01*
X68350Y134839D01*
X68287Y134738D01*
X68228Y134635D01*
X68172Y134531D01*
X68120Y134425D01*
X68071Y134317D01*
X68026Y134208D01*
X67984Y134097D01*
X67946Y133985D01*
X73343Y131446D02*
X73419Y131521D01*
X73494Y131600D01*
X73565Y131681D01*
X73634Y131765D01*
X73699Y131851D01*
X73761Y131939D01*
X73821Y132029D01*
X73877Y132121D01*
X73930Y132216D01*
X73979Y132312D01*
X74025Y132410D01*
X74068Y132509D01*
X74107Y132610D01*
X74142Y132712D01*
X74174Y132815D01*
X74202Y132919D01*
X74227Y133024D01*
X74248Y133131D01*
X74265Y133237D01*
X74278Y133344D01*
X74287Y133452D01*
X74293Y133560D01*
X74295Y133668D01*
X73343Y131445D02*
X67945Y125095D01*
X74295Y125095D01*
D10*
X257810Y107950D02*
X257810Y95250D01*
X257810Y107950D02*
X257812Y108090D01*
X257818Y108230D01*
X257827Y108370D01*
X257841Y108509D01*
X257858Y108648D01*
X257879Y108786D01*
X257904Y108924D01*
X257933Y109061D01*
X257965Y109197D01*
X258002Y109332D01*
X258042Y109466D01*
X258085Y109599D01*
X258133Y109731D01*
X258183Y109862D01*
X258238Y109991D01*
X258296Y110118D01*
X258357Y110244D01*
X258422Y110368D01*
X258491Y110490D01*
X258562Y110610D01*
X258637Y110728D01*
X258715Y110845D01*
X258797Y110959D01*
X258881Y111070D01*
X258969Y111179D01*
X259059Y111286D01*
X259153Y111391D01*
X259249Y111492D01*
X259348Y111591D01*
X259449Y111687D01*
X259554Y111781D01*
X259661Y111871D01*
X259770Y111959D01*
X259881Y112043D01*
X259995Y112125D01*
X260112Y112203D01*
X260230Y112278D01*
X260350Y112349D01*
X260472Y112418D01*
X260596Y112483D01*
X260722Y112544D01*
X260849Y112602D01*
X260978Y112657D01*
X261109Y112707D01*
X261241Y112755D01*
X261374Y112798D01*
X261508Y112838D01*
X261643Y112875D01*
X261779Y112907D01*
X261916Y112936D01*
X262054Y112961D01*
X262192Y112982D01*
X262331Y112999D01*
X262470Y113013D01*
X262610Y113022D01*
X262750Y113028D01*
X262890Y113030D01*
X257810Y95250D02*
X257812Y95110D01*
X257818Y94970D01*
X257827Y94830D01*
X257841Y94691D01*
X257858Y94552D01*
X257879Y94414D01*
X257904Y94276D01*
X257933Y94139D01*
X257965Y94003D01*
X258002Y93868D01*
X258042Y93734D01*
X258085Y93601D01*
X258133Y93469D01*
X258183Y93338D01*
X258238Y93209D01*
X258296Y93082D01*
X258357Y92956D01*
X258422Y92832D01*
X258491Y92710D01*
X258562Y92590D01*
X258637Y92472D01*
X258715Y92355D01*
X258797Y92241D01*
X258881Y92130D01*
X258969Y92021D01*
X259059Y91914D01*
X259153Y91809D01*
X259249Y91708D01*
X259348Y91609D01*
X259449Y91513D01*
X259554Y91419D01*
X259661Y91329D01*
X259770Y91241D01*
X259881Y91157D01*
X259995Y91075D01*
X260112Y90997D01*
X260230Y90922D01*
X260350Y90851D01*
X260472Y90782D01*
X260596Y90717D01*
X260722Y90656D01*
X260849Y90598D01*
X260978Y90543D01*
X261109Y90493D01*
X261241Y90445D01*
X261374Y90402D01*
X261508Y90362D01*
X261643Y90325D01*
X261779Y90293D01*
X261916Y90264D01*
X262054Y90239D01*
X262192Y90218D01*
X262331Y90201D01*
X262470Y90187D01*
X262610Y90178D01*
X262750Y90172D01*
X262890Y90170D01*
X262890Y113030D02*
X295910Y113030D01*
X300990Y107950D02*
X300990Y95250D01*
X295910Y90170D02*
X262890Y90170D01*
X295910Y113030D02*
X296050Y113028D01*
X296190Y113022D01*
X296330Y113013D01*
X296469Y112999D01*
X296608Y112982D01*
X296746Y112961D01*
X296884Y112936D01*
X297021Y112907D01*
X297157Y112875D01*
X297292Y112838D01*
X297426Y112798D01*
X297559Y112755D01*
X297691Y112707D01*
X297822Y112657D01*
X297951Y112602D01*
X298078Y112544D01*
X298204Y112483D01*
X298328Y112418D01*
X298450Y112349D01*
X298570Y112278D01*
X298688Y112203D01*
X298805Y112125D01*
X298919Y112043D01*
X299030Y111959D01*
X299139Y111871D01*
X299246Y111781D01*
X299351Y111687D01*
X299452Y111591D01*
X299551Y111492D01*
X299647Y111391D01*
X299741Y111286D01*
X299831Y111179D01*
X299919Y111070D01*
X300003Y110959D01*
X300085Y110845D01*
X300163Y110728D01*
X300238Y110610D01*
X300309Y110490D01*
X300378Y110368D01*
X300443Y110244D01*
X300504Y110118D01*
X300562Y109991D01*
X300617Y109862D01*
X300667Y109731D01*
X300715Y109599D01*
X300758Y109466D01*
X300798Y109332D01*
X300835Y109197D01*
X300867Y109061D01*
X300896Y108924D01*
X300921Y108786D01*
X300942Y108648D01*
X300959Y108509D01*
X300973Y108370D01*
X300982Y108230D01*
X300988Y108090D01*
X300990Y107950D01*
X300990Y95250D02*
X300988Y95110D01*
X300982Y94970D01*
X300973Y94830D01*
X300959Y94691D01*
X300942Y94552D01*
X300921Y94414D01*
X300896Y94276D01*
X300867Y94139D01*
X300835Y94003D01*
X300798Y93868D01*
X300758Y93734D01*
X300715Y93601D01*
X300667Y93469D01*
X300617Y93338D01*
X300562Y93209D01*
X300504Y93082D01*
X300443Y92956D01*
X300378Y92832D01*
X300309Y92710D01*
X300238Y92590D01*
X300163Y92472D01*
X300085Y92355D01*
X300003Y92241D01*
X299919Y92130D01*
X299831Y92021D01*
X299741Y91914D01*
X299647Y91809D01*
X299551Y91708D01*
X299452Y91609D01*
X299351Y91513D01*
X299246Y91419D01*
X299139Y91329D01*
X299030Y91241D01*
X298919Y91157D01*
X298805Y91075D01*
X298688Y90997D01*
X298570Y90922D01*
X298450Y90851D01*
X298328Y90782D01*
X298204Y90717D01*
X298078Y90656D01*
X297951Y90598D01*
X297822Y90543D01*
X297691Y90493D01*
X297559Y90445D01*
X297426Y90402D01*
X297292Y90362D01*
X297157Y90325D01*
X297021Y90293D01*
X296884Y90264D01*
X296746Y90239D01*
X296608Y90218D01*
X296469Y90201D01*
X296330Y90187D01*
X296190Y90178D01*
X296050Y90172D01*
X295910Y90170D01*
D12*
X276352Y93980D02*
X276352Y109220D01*
X282702Y109220D02*
X282702Y93980D01*
D11*
X267335Y116205D02*
X264795Y116205D01*
X264695Y116207D01*
X264596Y116213D01*
X264496Y116223D01*
X264398Y116236D01*
X264299Y116254D01*
X264202Y116275D01*
X264106Y116300D01*
X264010Y116329D01*
X263916Y116362D01*
X263823Y116398D01*
X263732Y116438D01*
X263642Y116482D01*
X263554Y116529D01*
X263468Y116579D01*
X263384Y116633D01*
X263302Y116690D01*
X263223Y116750D01*
X263145Y116814D01*
X263071Y116880D01*
X262999Y116949D01*
X262930Y117021D01*
X262864Y117095D01*
X262800Y117173D01*
X262740Y117252D01*
X262683Y117334D01*
X262629Y117418D01*
X262579Y117504D01*
X262532Y117592D01*
X262488Y117682D01*
X262448Y117773D01*
X262412Y117866D01*
X262379Y117960D01*
X262350Y118056D01*
X262325Y118152D01*
X262304Y118249D01*
X262286Y118348D01*
X262273Y118446D01*
X262263Y118546D01*
X262257Y118645D01*
X262255Y118745D01*
X262255Y125095D01*
X262257Y125195D01*
X262263Y125294D01*
X262273Y125394D01*
X262286Y125492D01*
X262304Y125591D01*
X262325Y125688D01*
X262350Y125784D01*
X262379Y125880D01*
X262412Y125974D01*
X262448Y126067D01*
X262488Y126158D01*
X262532Y126248D01*
X262579Y126336D01*
X262629Y126422D01*
X262683Y126506D01*
X262740Y126588D01*
X262800Y126667D01*
X262864Y126745D01*
X262930Y126819D01*
X262999Y126891D01*
X263071Y126960D01*
X263145Y127026D01*
X263223Y127090D01*
X263302Y127150D01*
X263384Y127207D01*
X263468Y127261D01*
X263554Y127311D01*
X263642Y127358D01*
X263732Y127402D01*
X263823Y127442D01*
X263916Y127478D01*
X264010Y127511D01*
X264106Y127540D01*
X264202Y127565D01*
X264299Y127586D01*
X264398Y127604D01*
X264496Y127617D01*
X264596Y127627D01*
X264695Y127633D01*
X264795Y127635D01*
X267335Y127635D01*
X271817Y116205D02*
X274992Y116205D01*
X275103Y116207D01*
X275213Y116213D01*
X275324Y116222D01*
X275434Y116236D01*
X275543Y116253D01*
X275652Y116274D01*
X275760Y116299D01*
X275867Y116328D01*
X275973Y116360D01*
X276078Y116396D01*
X276181Y116436D01*
X276283Y116479D01*
X276384Y116526D01*
X276483Y116577D01*
X276580Y116630D01*
X276674Y116687D01*
X276767Y116748D01*
X276858Y116811D01*
X276947Y116878D01*
X277033Y116948D01*
X277116Y117021D01*
X277198Y117096D01*
X277276Y117174D01*
X277351Y117256D01*
X277424Y117339D01*
X277494Y117425D01*
X277561Y117514D01*
X277624Y117605D01*
X277685Y117698D01*
X277742Y117792D01*
X277795Y117889D01*
X277846Y117988D01*
X277893Y118089D01*
X277936Y118191D01*
X277976Y118294D01*
X278012Y118399D01*
X278044Y118505D01*
X278073Y118612D01*
X278098Y118720D01*
X278119Y118829D01*
X278136Y118938D01*
X278150Y119048D01*
X278159Y119159D01*
X278165Y119269D01*
X278167Y119380D01*
X278165Y119491D01*
X278159Y119601D01*
X278150Y119712D01*
X278136Y119822D01*
X278119Y119931D01*
X278098Y120040D01*
X278073Y120148D01*
X278044Y120255D01*
X278012Y120361D01*
X277976Y120466D01*
X277936Y120569D01*
X277893Y120671D01*
X277846Y120772D01*
X277795Y120871D01*
X277742Y120967D01*
X277685Y121062D01*
X277624Y121155D01*
X277561Y121246D01*
X277494Y121335D01*
X277424Y121421D01*
X277351Y121504D01*
X277276Y121586D01*
X277198Y121664D01*
X277116Y121739D01*
X277033Y121812D01*
X276947Y121882D01*
X276858Y121949D01*
X276767Y122012D01*
X276674Y122073D01*
X276580Y122130D01*
X276483Y122183D01*
X276384Y122234D01*
X276283Y122281D01*
X276181Y122324D01*
X276078Y122364D01*
X275973Y122400D01*
X275867Y122432D01*
X275760Y122461D01*
X275652Y122486D01*
X275543Y122507D01*
X275434Y122524D01*
X275324Y122538D01*
X275213Y122547D01*
X275103Y122553D01*
X274992Y122555D01*
X275627Y127635D02*
X271817Y127635D01*
X275627Y127635D02*
X275727Y127633D01*
X275826Y127627D01*
X275926Y127617D01*
X276024Y127604D01*
X276123Y127586D01*
X276220Y127565D01*
X276316Y127540D01*
X276412Y127511D01*
X276506Y127478D01*
X276599Y127442D01*
X276690Y127402D01*
X276780Y127358D01*
X276868Y127311D01*
X276954Y127261D01*
X277038Y127207D01*
X277120Y127150D01*
X277199Y127090D01*
X277277Y127026D01*
X277351Y126960D01*
X277423Y126891D01*
X277492Y126819D01*
X277558Y126745D01*
X277622Y126667D01*
X277682Y126588D01*
X277739Y126506D01*
X277793Y126422D01*
X277843Y126336D01*
X277890Y126248D01*
X277934Y126158D01*
X277974Y126067D01*
X278010Y125974D01*
X278043Y125880D01*
X278072Y125784D01*
X278097Y125688D01*
X278118Y125591D01*
X278136Y125492D01*
X278149Y125394D01*
X278159Y125294D01*
X278165Y125195D01*
X278167Y125095D01*
X278165Y124995D01*
X278159Y124896D01*
X278149Y124796D01*
X278136Y124698D01*
X278118Y124599D01*
X278097Y124502D01*
X278072Y124406D01*
X278043Y124310D01*
X278010Y124216D01*
X277974Y124123D01*
X277934Y124032D01*
X277890Y123942D01*
X277843Y123854D01*
X277793Y123768D01*
X277739Y123684D01*
X277682Y123602D01*
X277622Y123523D01*
X277558Y123445D01*
X277492Y123371D01*
X277423Y123299D01*
X277351Y123230D01*
X277277Y123164D01*
X277199Y123100D01*
X277120Y123040D01*
X277038Y122983D01*
X276954Y122929D01*
X276868Y122879D01*
X276780Y122832D01*
X276690Y122788D01*
X276599Y122748D01*
X276506Y122712D01*
X276412Y122679D01*
X276316Y122650D01*
X276220Y122625D01*
X276123Y122604D01*
X276024Y122586D01*
X275926Y122573D01*
X275826Y122563D01*
X275727Y122557D01*
X275627Y122555D01*
X273087Y122555D01*
D10*
X219710Y88900D02*
X219710Y190500D01*
X161290Y190500D02*
X161290Y88900D01*
X219710Y88900D01*
X219710Y190500D02*
X200660Y190500D01*
X180340Y190500D02*
X161290Y190500D01*
X180340Y190500D02*
X180343Y190253D01*
X180352Y190005D01*
X180367Y189758D01*
X180388Y189512D01*
X180415Y189266D01*
X180448Y189021D01*
X180487Y188776D01*
X180532Y188533D01*
X180583Y188291D01*
X180640Y188050D01*
X180702Y187811D01*
X180771Y187573D01*
X180845Y187337D01*
X180925Y187103D01*
X181010Y186871D01*
X181102Y186641D01*
X181198Y186413D01*
X181301Y186188D01*
X181408Y185965D01*
X181522Y185745D01*
X181640Y185528D01*
X181764Y185313D01*
X181893Y185102D01*
X182027Y184894D01*
X182166Y184689D01*
X182310Y184488D01*
X182458Y184290D01*
X182612Y184096D01*
X182770Y183906D01*
X182933Y183720D01*
X183100Y183538D01*
X183272Y183360D01*
X183448Y183186D01*
X183628Y183016D01*
X183813Y182851D01*
X184001Y182691D01*
X184193Y182535D01*
X184389Y182383D01*
X184588Y182237D01*
X184791Y182095D01*
X184998Y181959D01*
X185207Y181827D01*
X185420Y181701D01*
X185636Y181580D01*
X185854Y181464D01*
X186076Y181354D01*
X186300Y181249D01*
X186526Y181149D01*
X186755Y181055D01*
X186986Y180967D01*
X187220Y180884D01*
X187455Y180807D01*
X187692Y180736D01*
X187930Y180670D01*
X188170Y180611D01*
X188412Y180557D01*
X188655Y180509D01*
X188898Y180467D01*
X189143Y180431D01*
X189389Y180401D01*
X189635Y180377D01*
X189882Y180359D01*
X190129Y180347D01*
X190376Y180341D01*
X190624Y180341D01*
X190871Y180347D01*
X191118Y180359D01*
X191365Y180377D01*
X191611Y180401D01*
X191857Y180431D01*
X192102Y180467D01*
X192345Y180509D01*
X192588Y180557D01*
X192830Y180611D01*
X193070Y180670D01*
X193308Y180736D01*
X193545Y180807D01*
X193780Y180884D01*
X194014Y180967D01*
X194245Y181055D01*
X194474Y181149D01*
X194700Y181249D01*
X194924Y181354D01*
X195146Y181464D01*
X195364Y181580D01*
X195580Y181701D01*
X195793Y181827D01*
X196002Y181959D01*
X196209Y182095D01*
X196412Y182237D01*
X196611Y182383D01*
X196807Y182535D01*
X196999Y182691D01*
X197187Y182851D01*
X197372Y183016D01*
X197552Y183186D01*
X197728Y183360D01*
X197900Y183538D01*
X198067Y183720D01*
X198230Y183906D01*
X198388Y184096D01*
X198542Y184290D01*
X198690Y184488D01*
X198834Y184689D01*
X198973Y184894D01*
X199107Y185102D01*
X199236Y185313D01*
X199360Y185528D01*
X199478Y185745D01*
X199592Y185965D01*
X199699Y186188D01*
X199802Y186413D01*
X199898Y186641D01*
X199990Y186871D01*
X200075Y187103D01*
X200155Y187337D01*
X200229Y187573D01*
X200298Y187811D01*
X200360Y188050D01*
X200417Y188291D01*
X200468Y188533D01*
X200513Y188776D01*
X200552Y189021D01*
X200585Y189266D01*
X200612Y189512D01*
X200633Y189758D01*
X200648Y190005D01*
X200657Y190253D01*
X200660Y190500D01*
D11*
X163195Y193675D02*
X163195Y205105D01*
X161925Y193675D02*
X164465Y193675D01*
X164465Y205105D02*
X161925Y205105D01*
X171667Y193675D02*
X174207Y193675D01*
X171667Y193675D02*
X171567Y193677D01*
X171468Y193683D01*
X171368Y193693D01*
X171270Y193706D01*
X171171Y193724D01*
X171074Y193745D01*
X170978Y193770D01*
X170882Y193799D01*
X170788Y193832D01*
X170695Y193868D01*
X170604Y193908D01*
X170514Y193952D01*
X170426Y193999D01*
X170340Y194049D01*
X170256Y194103D01*
X170174Y194160D01*
X170095Y194220D01*
X170017Y194284D01*
X169943Y194350D01*
X169871Y194419D01*
X169802Y194491D01*
X169736Y194565D01*
X169672Y194643D01*
X169612Y194722D01*
X169555Y194804D01*
X169501Y194888D01*
X169451Y194974D01*
X169404Y195062D01*
X169360Y195152D01*
X169320Y195243D01*
X169284Y195336D01*
X169251Y195430D01*
X169222Y195526D01*
X169197Y195622D01*
X169176Y195719D01*
X169158Y195818D01*
X169145Y195916D01*
X169135Y196016D01*
X169129Y196115D01*
X169127Y196215D01*
X169127Y202565D01*
X169129Y202665D01*
X169135Y202764D01*
X169145Y202864D01*
X169158Y202962D01*
X169176Y203061D01*
X169197Y203158D01*
X169222Y203254D01*
X169251Y203350D01*
X169284Y203444D01*
X169320Y203537D01*
X169360Y203628D01*
X169404Y203718D01*
X169451Y203806D01*
X169501Y203892D01*
X169555Y203976D01*
X169612Y204058D01*
X169672Y204137D01*
X169736Y204215D01*
X169802Y204289D01*
X169871Y204361D01*
X169943Y204430D01*
X170017Y204496D01*
X170095Y204560D01*
X170174Y204620D01*
X170256Y204677D01*
X170340Y204731D01*
X170426Y204781D01*
X170514Y204828D01*
X170604Y204872D01*
X170695Y204912D01*
X170788Y204948D01*
X170882Y204981D01*
X170978Y205010D01*
X171074Y205035D01*
X171171Y205056D01*
X171270Y205074D01*
X171368Y205087D01*
X171468Y205097D01*
X171567Y205103D01*
X171667Y205105D01*
X174207Y205105D01*
X178689Y202565D02*
X181864Y205105D01*
X181864Y193675D01*
X178689Y193675D02*
X185039Y193675D01*
D13*
X215900Y69850D02*
X215900Y31750D01*
D14*
X215426Y31134D01*
X214937Y30529D01*
X214433Y29937D01*
X213915Y29357D01*
X213383Y28790D01*
X212837Y28236D01*
X212278Y27696D01*
X211705Y27170D01*
X211120Y26657D01*
X210523Y26160D01*
X209914Y25677D01*
X209293Y25209D01*
X208660Y24756D01*
X208017Y24319D01*
X207363Y23898D01*
X206699Y23494D01*
X206026Y23105D01*
X205343Y22733D01*
X204651Y22378D01*
X203951Y22040D01*
X203243Y21719D01*
X202527Y21416D01*
X201803Y21130D01*
X201074Y20862D01*
X200337Y20612D01*
X199595Y20381D01*
X198847Y20167D01*
X198095Y19972D01*
X197337Y19795D01*
X196576Y19637D01*
X195811Y19497D01*
X195043Y19377D01*
X194272Y19275D01*
X193499Y19192D01*
X192724Y19128D01*
X191948Y19083D01*
X191171Y19057D01*
X190393Y19050D01*
X189616Y19062D01*
X188839Y19093D01*
X188063Y19144D01*
X187288Y19213D01*
X186516Y19301D01*
X185746Y19408D01*
X184978Y19534D01*
X184214Y19678D01*
X183454Y19842D01*
X182698Y20024D01*
X181947Y20224D01*
X181200Y20442D01*
X180460Y20679D01*
X179725Y20934D01*
X178997Y21207D01*
X178276Y21498D01*
X177562Y21806D01*
X176856Y22131D01*
X176158Y22474D01*
X175468Y22834D01*
X174788Y23210D01*
X174117Y23603D01*
X173456Y24013D01*
X172805Y24438D01*
X172165Y24879D01*
X171536Y25336D01*
X170918Y25808D01*
X170312Y26295D01*
X169718Y26797D01*
X169136Y27313D01*
X168567Y27843D01*
X168012Y28387D01*
X167469Y28945D01*
X166941Y29515D01*
X166427Y30098D01*
X165927Y30694D01*
X165442Y31302D01*
X164972Y31921D01*
X164518Y32552D01*
X164079Y33194D01*
X163655Y33846D01*
X163248Y34509D01*
X162857Y35181D01*
X162483Y35863D01*
X162126Y36553D01*
X161786Y37252D01*
X161462Y37960D01*
X161157Y38674D01*
X160868Y39397D01*
X160598Y40126D01*
X160346Y40861D01*
X160111Y41603D01*
X159895Y42350D01*
X159697Y43102D01*
X159518Y43858D01*
X159357Y44619D01*
X159215Y45383D01*
X159092Y46151D01*
X158988Y46922D01*
X158902Y47695D01*
X158836Y48469D01*
X158788Y49245D01*
X158760Y50022D01*
X158750Y50800D01*
X158760Y51578D01*
X158788Y52355D01*
X158836Y53131D01*
X158902Y53905D01*
X158988Y54678D01*
X159092Y55449D01*
X159215Y56217D01*
X159357Y56981D01*
X159518Y57742D01*
X159697Y58498D01*
X159895Y59250D01*
X160111Y59997D01*
X160346Y60739D01*
X160598Y61474D01*
X160868Y62203D01*
X161157Y62926D01*
X161462Y63640D01*
X161786Y64348D01*
X162126Y65047D01*
X162483Y65737D01*
X162857Y66419D01*
X163248Y67091D01*
X163655Y67754D01*
X164079Y68406D01*
X164518Y69048D01*
X164972Y69679D01*
X165442Y70298D01*
X165927Y70906D01*
X166427Y71502D01*
X166941Y72085D01*
X167469Y72655D01*
X168012Y73213D01*
X168567Y73757D01*
X169136Y74287D01*
X169718Y74803D01*
X170312Y75305D01*
X170918Y75792D01*
X171536Y76264D01*
X172165Y76721D01*
X172805Y77162D01*
X173456Y77587D01*
X174117Y77997D01*
X174788Y78390D01*
X175468Y78766D01*
X176158Y79126D01*
X176856Y79469D01*
X177562Y79794D01*
X178276Y80102D01*
X178997Y80393D01*
X179725Y80666D01*
X180460Y80921D01*
X181200Y81158D01*
X181947Y81376D01*
X182698Y81576D01*
X183454Y81758D01*
X184214Y81922D01*
X184978Y82066D01*
X185746Y82192D01*
X186516Y82299D01*
X187288Y82387D01*
X188063Y82456D01*
X188839Y82507D01*
X189616Y82538D01*
X190393Y82550D01*
X191171Y82543D01*
X191948Y82517D01*
X192724Y82472D01*
X193499Y82408D01*
X194272Y82325D01*
X195043Y82223D01*
X195811Y82103D01*
X196576Y81963D01*
X197337Y81805D01*
X198095Y81628D01*
X198847Y81433D01*
X199595Y81219D01*
X200337Y80988D01*
X201074Y80738D01*
X201803Y80470D01*
X202527Y80184D01*
X203243Y79881D01*
X203951Y79560D01*
X204651Y79222D01*
X205343Y78867D01*
X206026Y78495D01*
X206699Y78106D01*
X207363Y77702D01*
X208017Y77281D01*
X208660Y76844D01*
X209293Y76391D01*
X209914Y75923D01*
X210523Y75440D01*
X211120Y74943D01*
X211705Y74430D01*
X212278Y73904D01*
X212837Y73364D01*
X213383Y72810D01*
X213915Y72243D01*
X214433Y71663D01*
X214937Y71071D01*
X215426Y70466D01*
X215900Y69850D01*
D10*
X165100Y50800D02*
X165108Y51423D01*
X165131Y52046D01*
X165169Y52669D01*
X165222Y53290D01*
X165291Y53909D01*
X165375Y54527D01*
X165474Y55142D01*
X165588Y55755D01*
X165717Y56365D01*
X165861Y56972D01*
X166020Y57575D01*
X166194Y58173D01*
X166382Y58768D01*
X166585Y59357D01*
X166802Y59941D01*
X167033Y60520D01*
X167279Y61093D01*
X167539Y61660D01*
X167812Y62220D01*
X168099Y62773D01*
X168400Y63320D01*
X168714Y63858D01*
X169041Y64389D01*
X169381Y64911D01*
X169733Y65426D01*
X170099Y65931D01*
X170476Y66427D01*
X170866Y66914D01*
X171267Y67391D01*
X171680Y67858D01*
X172104Y68314D01*
X172539Y68761D01*
X172986Y69196D01*
X173442Y69620D01*
X173909Y70033D01*
X174386Y70434D01*
X174873Y70824D01*
X175369Y71201D01*
X175874Y71567D01*
X176389Y71919D01*
X176911Y72259D01*
X177442Y72586D01*
X177980Y72900D01*
X178527Y73201D01*
X179080Y73488D01*
X179640Y73761D01*
X180207Y74021D01*
X180780Y74267D01*
X181359Y74498D01*
X181943Y74715D01*
X182532Y74918D01*
X183127Y75106D01*
X183725Y75280D01*
X184328Y75439D01*
X184935Y75583D01*
X185545Y75712D01*
X186158Y75826D01*
X186773Y75925D01*
X187391Y76009D01*
X188010Y76078D01*
X188631Y76131D01*
X189254Y76169D01*
X189877Y76192D01*
X190500Y76200D01*
X191123Y76192D01*
X191746Y76169D01*
X192369Y76131D01*
X192990Y76078D01*
X193609Y76009D01*
X194227Y75925D01*
X194842Y75826D01*
X195455Y75712D01*
X196065Y75583D01*
X196672Y75439D01*
X197275Y75280D01*
X197873Y75106D01*
X198468Y74918D01*
X199057Y74715D01*
X199641Y74498D01*
X200220Y74267D01*
X200793Y74021D01*
X201360Y73761D01*
X201920Y73488D01*
X202473Y73201D01*
X203020Y72900D01*
X203558Y72586D01*
X204089Y72259D01*
X204611Y71919D01*
X205126Y71567D01*
X205631Y71201D01*
X206127Y70824D01*
X206614Y70434D01*
X207091Y70033D01*
X207558Y69620D01*
X208014Y69196D01*
X208461Y68761D01*
X208896Y68314D01*
X209320Y67858D01*
X209733Y67391D01*
X210134Y66914D01*
X210524Y66427D01*
X210901Y65931D01*
X211267Y65426D01*
X211619Y64911D01*
X211959Y64389D01*
X212286Y63858D01*
X212600Y63320D01*
X212901Y62773D01*
X213188Y62220D01*
X213461Y61660D01*
X213721Y61093D01*
X213967Y60520D01*
X214198Y59941D01*
X214415Y59357D01*
X214618Y58768D01*
X214806Y58173D01*
X214980Y57575D01*
X215139Y56972D01*
X215283Y56365D01*
X215412Y55755D01*
X215526Y55142D01*
X215625Y54527D01*
X215709Y53909D01*
X215778Y53290D01*
X215831Y52669D01*
X215869Y52046D01*
X215892Y51423D01*
X215900Y50800D01*
X215892Y50177D01*
X215869Y49554D01*
X215831Y48931D01*
X215778Y48310D01*
X215709Y47691D01*
X215625Y47073D01*
X215526Y46458D01*
X215412Y45845D01*
X215283Y45235D01*
X215139Y44628D01*
X214980Y44025D01*
X214806Y43427D01*
X214618Y42832D01*
X214415Y42243D01*
X214198Y41659D01*
X213967Y41080D01*
X213721Y40507D01*
X213461Y39940D01*
X213188Y39380D01*
X212901Y38827D01*
X212600Y38280D01*
X212286Y37742D01*
X211959Y37211D01*
X211619Y36689D01*
X211267Y36174D01*
X210901Y35669D01*
X210524Y35173D01*
X210134Y34686D01*
X209733Y34209D01*
X209320Y33742D01*
X208896Y33286D01*
X208461Y32839D01*
X208014Y32404D01*
X207558Y31980D01*
X207091Y31567D01*
X206614Y31166D01*
X206127Y30776D01*
X205631Y30399D01*
X205126Y30033D01*
X204611Y29681D01*
X204089Y29341D01*
X203558Y29014D01*
X203020Y28700D01*
X202473Y28399D01*
X201920Y28112D01*
X201360Y27839D01*
X200793Y27579D01*
X200220Y27333D01*
X199641Y27102D01*
X199057Y26885D01*
X198468Y26682D01*
X197873Y26494D01*
X197275Y26320D01*
X196672Y26161D01*
X196065Y26017D01*
X195455Y25888D01*
X194842Y25774D01*
X194227Y25675D01*
X193609Y25591D01*
X192990Y25522D01*
X192369Y25469D01*
X191746Y25431D01*
X191123Y25408D01*
X190500Y25400D01*
X189877Y25408D01*
X189254Y25431D01*
X188631Y25469D01*
X188010Y25522D01*
X187391Y25591D01*
X186773Y25675D01*
X186158Y25774D01*
X185545Y25888D01*
X184935Y26017D01*
X184328Y26161D01*
X183725Y26320D01*
X183127Y26494D01*
X182532Y26682D01*
X181943Y26885D01*
X181359Y27102D01*
X180780Y27333D01*
X180207Y27579D01*
X179640Y27839D01*
X179080Y28112D01*
X178527Y28399D01*
X177980Y28700D01*
X177442Y29014D01*
X176911Y29341D01*
X176389Y29681D01*
X175874Y30033D01*
X175369Y30399D01*
X174873Y30776D01*
X174386Y31166D01*
X173909Y31567D01*
X173442Y31980D01*
X172986Y32404D01*
X172539Y32839D01*
X172104Y33286D01*
X171680Y33742D01*
X171267Y34209D01*
X170866Y34686D01*
X170476Y35173D01*
X170099Y35669D01*
X169733Y36174D01*
X169381Y36689D01*
X169041Y37211D01*
X168714Y37742D01*
X168400Y38280D01*
X168099Y38827D01*
X167812Y39380D01*
X167539Y39940D01*
X167279Y40507D01*
X167033Y41080D01*
X166802Y41659D01*
X166585Y42243D01*
X166382Y42832D01*
X166194Y43427D01*
X166020Y44025D01*
X165861Y44628D01*
X165717Y45235D01*
X165588Y45845D01*
X165474Y46458D01*
X165375Y47073D01*
X165291Y47691D01*
X165222Y48310D01*
X165169Y48931D01*
X165131Y49554D01*
X165108Y50177D01*
X165100Y50800D01*
D11*
X222885Y56769D02*
X222885Y68199D01*
X222885Y56769D02*
X227965Y56769D01*
X232791Y56769D02*
X237871Y56769D01*
X232791Y56769D02*
X232791Y68199D01*
X237871Y68199D01*
X236601Y63119D02*
X232791Y63119D01*
X242672Y68199D02*
X242672Y56769D01*
X242672Y68199D02*
X245847Y68199D01*
X245958Y68197D01*
X246068Y68191D01*
X246179Y68182D01*
X246289Y68168D01*
X246398Y68151D01*
X246507Y68130D01*
X246615Y68105D01*
X246722Y68076D01*
X246828Y68044D01*
X246933Y68008D01*
X247036Y67968D01*
X247138Y67925D01*
X247239Y67878D01*
X247338Y67827D01*
X247435Y67774D01*
X247529Y67717D01*
X247622Y67656D01*
X247713Y67593D01*
X247802Y67526D01*
X247888Y67456D01*
X247971Y67383D01*
X248053Y67308D01*
X248131Y67230D01*
X248206Y67148D01*
X248279Y67065D01*
X248349Y66979D01*
X248416Y66890D01*
X248479Y66799D01*
X248540Y66706D01*
X248597Y66612D01*
X248650Y66515D01*
X248701Y66416D01*
X248748Y66315D01*
X248791Y66213D01*
X248831Y66110D01*
X248867Y66005D01*
X248899Y65899D01*
X248928Y65792D01*
X248953Y65684D01*
X248974Y65575D01*
X248991Y65466D01*
X249005Y65356D01*
X249014Y65245D01*
X249020Y65135D01*
X249022Y65024D01*
X249022Y59944D01*
X249020Y59833D01*
X249014Y59723D01*
X249005Y59612D01*
X248991Y59502D01*
X248974Y59393D01*
X248953Y59284D01*
X248928Y59176D01*
X248899Y59069D01*
X248867Y58963D01*
X248831Y58858D01*
X248791Y58755D01*
X248748Y58653D01*
X248701Y58552D01*
X248650Y58453D01*
X248597Y58356D01*
X248540Y58262D01*
X248479Y58169D01*
X248416Y58078D01*
X248349Y57989D01*
X248279Y57903D01*
X248206Y57820D01*
X248131Y57738D01*
X248053Y57660D01*
X247971Y57585D01*
X247888Y57512D01*
X247802Y57442D01*
X247713Y57375D01*
X247622Y57312D01*
X247529Y57251D01*
X247434Y57194D01*
X247338Y57141D01*
X247239Y57090D01*
X247138Y57043D01*
X247036Y57000D01*
X246933Y56960D01*
X246828Y56924D01*
X246722Y56892D01*
X246615Y56863D01*
X246507Y56838D01*
X246398Y56817D01*
X246289Y56800D01*
X246179Y56786D01*
X246068Y56777D01*
X245958Y56771D01*
X245847Y56769D01*
X242672Y56769D01*
X254483Y65659D02*
X257658Y68199D01*
X257658Y56769D01*
X254483Y56769D02*
X260833Y56769D01*
X130810Y71750D02*
X130810Y29850D01*
X102941Y26670D02*
X102357Y26953D01*
X101781Y27251D01*
X101212Y27562D01*
X100651Y27887D01*
X100098Y28226D01*
X99553Y28578D01*
X99017Y28943D01*
X98490Y29321D01*
X97973Y29712D01*
X97465Y30115D01*
X96967Y30531D01*
X96479Y30958D01*
X96002Y31397D01*
X95535Y31848D01*
X95080Y32310D01*
X94636Y32783D01*
X94204Y33266D01*
X93783Y33760D01*
X93375Y34264D01*
X92979Y34778D01*
X92596Y35301D01*
X92225Y35833D01*
X91868Y36375D01*
X91524Y36924D01*
X91193Y37482D01*
X90876Y38048D01*
X90573Y38621D01*
X90284Y39202D01*
X90009Y39789D01*
X89748Y40383D01*
X89502Y40983D01*
X89271Y41589D01*
X89054Y42201D01*
X88853Y42817D01*
X88666Y43438D01*
X88495Y44064D01*
X88339Y44693D01*
X88198Y45326D01*
X88072Y45963D01*
X87963Y46602D01*
X87868Y47243D01*
X87790Y47887D01*
X87727Y48533D01*
X87679Y49180D01*
X87648Y49827D01*
X87632Y50476D01*
X87632Y51124D01*
X87648Y51773D01*
X87679Y52420D01*
X87727Y53067D01*
X87790Y53713D01*
X87868Y54357D01*
X87963Y54998D01*
X88072Y55637D01*
X88198Y56274D01*
X88339Y56907D01*
X88495Y57536D01*
X88666Y58162D01*
X88853Y58783D01*
X89054Y59399D01*
X89271Y60011D01*
X89502Y60617D01*
X89748Y61217D01*
X90009Y61811D01*
X90284Y62398D01*
X90573Y62979D01*
X90876Y63552D01*
X91193Y64118D01*
X91524Y64676D01*
X91868Y65225D01*
X92225Y65767D01*
X92596Y66299D01*
X92979Y66822D01*
X93375Y67336D01*
X93783Y67840D01*
X94204Y68334D01*
X94636Y68817D01*
X95080Y69290D01*
X95535Y69752D01*
X96002Y70203D01*
X96479Y70642D01*
X96967Y71069D01*
X97465Y71485D01*
X97973Y71888D01*
X98490Y72279D01*
X99017Y72657D01*
X99553Y73022D01*
X100098Y73374D01*
X100651Y73713D01*
X101212Y74038D01*
X101781Y74349D01*
X102357Y74647D01*
X102941Y74930D01*
X130810Y29850D02*
X130329Y29480D01*
X129840Y29121D01*
X129343Y28773D01*
X128838Y28436D01*
X128325Y28111D01*
X127805Y27798D01*
X127278Y27496D01*
X126745Y27207D01*
X126205Y26930D01*
X125659Y26665D01*
X115570Y36760D02*
X115570Y39440D01*
X115570Y62160D02*
X115570Y64840D01*
X125418Y75047D02*
X125991Y74776D01*
X126557Y74491D01*
X127116Y74194D01*
X127668Y73883D01*
X128212Y73558D01*
X128748Y73222D01*
X129277Y72872D01*
X129797Y72510D01*
X130308Y72136D01*
X130810Y71750D01*
X80010Y26035D02*
X74930Y26035D01*
X74819Y26037D01*
X74709Y26043D01*
X74598Y26052D01*
X74488Y26066D01*
X74379Y26083D01*
X74270Y26104D01*
X74162Y26129D01*
X74055Y26158D01*
X73949Y26190D01*
X73844Y26226D01*
X73741Y26266D01*
X73639Y26309D01*
X73538Y26356D01*
X73439Y26407D01*
X73343Y26460D01*
X73248Y26517D01*
X73155Y26578D01*
X73064Y26641D01*
X72975Y26708D01*
X72889Y26778D01*
X72806Y26851D01*
X72724Y26926D01*
X72646Y27004D01*
X72571Y27086D01*
X72498Y27169D01*
X72428Y27255D01*
X72361Y27344D01*
X72298Y27435D01*
X72237Y27528D01*
X72180Y27622D01*
X72127Y27719D01*
X72076Y27818D01*
X72029Y27919D01*
X71986Y28021D01*
X71946Y28124D01*
X71910Y28229D01*
X71878Y28335D01*
X71849Y28442D01*
X71824Y28550D01*
X71803Y28659D01*
X71786Y28768D01*
X71772Y28878D01*
X71763Y28989D01*
X71757Y29099D01*
X71755Y29210D01*
X71757Y29321D01*
X71763Y29431D01*
X71772Y29542D01*
X71786Y29652D01*
X71803Y29761D01*
X71824Y29870D01*
X71849Y29978D01*
X71878Y30085D01*
X71910Y30191D01*
X71946Y30296D01*
X71986Y30399D01*
X72029Y30501D01*
X72076Y30602D01*
X72127Y30701D01*
X72180Y30797D01*
X72237Y30892D01*
X72298Y30985D01*
X72361Y31076D01*
X72428Y31165D01*
X72498Y31251D01*
X72571Y31334D01*
X72646Y31416D01*
X72724Y31494D01*
X72806Y31569D01*
X72889Y31642D01*
X72975Y31712D01*
X73064Y31779D01*
X73155Y31842D01*
X73248Y31903D01*
X73343Y31960D01*
X73439Y32013D01*
X73538Y32064D01*
X73639Y32111D01*
X73741Y32154D01*
X73844Y32194D01*
X73949Y32230D01*
X74055Y32262D01*
X74162Y32291D01*
X74270Y32316D01*
X74379Y32337D01*
X74488Y32354D01*
X74598Y32368D01*
X74709Y32377D01*
X74819Y32383D01*
X74930Y32385D01*
X80010Y32385D01*
X80121Y32383D01*
X80231Y32377D01*
X80342Y32368D01*
X80452Y32354D01*
X80561Y32337D01*
X80670Y32316D01*
X80778Y32291D01*
X80885Y32262D01*
X80991Y32230D01*
X81096Y32194D01*
X81199Y32154D01*
X81301Y32111D01*
X81402Y32064D01*
X81501Y32013D01*
X81598Y31960D01*
X81692Y31903D01*
X81785Y31842D01*
X81876Y31779D01*
X81965Y31712D01*
X82051Y31642D01*
X82134Y31569D01*
X82216Y31494D01*
X82294Y31416D01*
X82369Y31334D01*
X82442Y31251D01*
X82512Y31165D01*
X82579Y31076D01*
X82642Y30985D01*
X82703Y30892D01*
X82760Y30797D01*
X82813Y30701D01*
X82864Y30602D01*
X82911Y30501D01*
X82954Y30399D01*
X82994Y30296D01*
X83030Y30191D01*
X83062Y30085D01*
X83091Y29978D01*
X83116Y29870D01*
X83137Y29761D01*
X83154Y29652D01*
X83168Y29542D01*
X83177Y29431D01*
X83183Y29321D01*
X83185Y29210D01*
X83183Y29099D01*
X83177Y28989D01*
X83168Y28878D01*
X83154Y28768D01*
X83137Y28659D01*
X83116Y28550D01*
X83091Y28442D01*
X83062Y28335D01*
X83030Y28229D01*
X82994Y28124D01*
X82954Y28021D01*
X82911Y27919D01*
X82864Y27818D01*
X82813Y27719D01*
X82760Y27622D01*
X82703Y27528D01*
X82642Y27435D01*
X82579Y27344D01*
X82512Y27255D01*
X82442Y27169D01*
X82369Y27086D01*
X82294Y27004D01*
X82216Y26926D01*
X82134Y26851D01*
X82051Y26778D01*
X81965Y26708D01*
X81876Y26641D01*
X81785Y26578D01*
X81692Y26517D01*
X81597Y26460D01*
X81501Y26407D01*
X81402Y26356D01*
X81301Y26309D01*
X81199Y26266D01*
X81096Y26226D01*
X80991Y26190D01*
X80885Y26158D01*
X80778Y26129D01*
X80670Y26104D01*
X80561Y26083D01*
X80452Y26066D01*
X80342Y26052D01*
X80231Y26043D01*
X80121Y26037D01*
X80010Y26035D01*
X80645Y31115D02*
X83185Y33655D01*
X74295Y37096D02*
X71755Y40271D01*
X83185Y40271D01*
X83185Y37096D02*
X83185Y43446D01*
D10*
X317500Y99060D02*
X317500Y104140D01*
X342900Y104140D02*
X342900Y99060D01*
X342900Y104140D02*
X341630Y104140D01*
X341630Y99060D02*
X342900Y99060D01*
X318770Y99060D02*
X317500Y99060D01*
X317500Y104140D02*
X318770Y104140D01*
D11*
X318135Y118110D02*
X318135Y123190D01*
X318137Y123301D01*
X318143Y123411D01*
X318152Y123522D01*
X318166Y123632D01*
X318183Y123741D01*
X318204Y123850D01*
X318229Y123958D01*
X318258Y124065D01*
X318290Y124171D01*
X318326Y124276D01*
X318366Y124379D01*
X318409Y124481D01*
X318456Y124582D01*
X318507Y124681D01*
X318560Y124777D01*
X318617Y124872D01*
X318678Y124965D01*
X318741Y125056D01*
X318808Y125145D01*
X318878Y125231D01*
X318951Y125314D01*
X319026Y125396D01*
X319104Y125474D01*
X319186Y125549D01*
X319269Y125622D01*
X319355Y125692D01*
X319444Y125759D01*
X319535Y125822D01*
X319628Y125883D01*
X319723Y125940D01*
X319819Y125993D01*
X319918Y126044D01*
X320019Y126091D01*
X320121Y126134D01*
X320224Y126174D01*
X320329Y126210D01*
X320435Y126242D01*
X320542Y126271D01*
X320650Y126296D01*
X320759Y126317D01*
X320868Y126334D01*
X320978Y126348D01*
X321089Y126357D01*
X321199Y126363D01*
X321310Y126365D01*
X321421Y126363D01*
X321531Y126357D01*
X321642Y126348D01*
X321752Y126334D01*
X321861Y126317D01*
X321970Y126296D01*
X322078Y126271D01*
X322185Y126242D01*
X322291Y126210D01*
X322396Y126174D01*
X322499Y126134D01*
X322601Y126091D01*
X322702Y126044D01*
X322801Y125993D01*
X322898Y125940D01*
X322992Y125883D01*
X323085Y125822D01*
X323176Y125759D01*
X323265Y125692D01*
X323351Y125622D01*
X323434Y125549D01*
X323516Y125474D01*
X323594Y125396D01*
X323669Y125314D01*
X323742Y125231D01*
X323812Y125145D01*
X323879Y125056D01*
X323942Y124965D01*
X324003Y124872D01*
X324060Y124778D01*
X324113Y124681D01*
X324164Y124582D01*
X324211Y124481D01*
X324254Y124379D01*
X324294Y124276D01*
X324330Y124171D01*
X324362Y124065D01*
X324391Y123958D01*
X324416Y123850D01*
X324437Y123741D01*
X324454Y123632D01*
X324468Y123522D01*
X324477Y123411D01*
X324483Y123301D01*
X324485Y123190D01*
X324485Y118110D01*
X324483Y117999D01*
X324477Y117889D01*
X324468Y117778D01*
X324454Y117668D01*
X324437Y117559D01*
X324416Y117450D01*
X324391Y117342D01*
X324362Y117235D01*
X324330Y117129D01*
X324294Y117024D01*
X324254Y116921D01*
X324211Y116819D01*
X324164Y116718D01*
X324113Y116619D01*
X324060Y116522D01*
X324003Y116428D01*
X323942Y116335D01*
X323879Y116244D01*
X323812Y116155D01*
X323742Y116069D01*
X323669Y115986D01*
X323594Y115904D01*
X323516Y115826D01*
X323434Y115751D01*
X323351Y115678D01*
X323265Y115608D01*
X323176Y115541D01*
X323085Y115478D01*
X322992Y115417D01*
X322897Y115360D01*
X322801Y115307D01*
X322702Y115256D01*
X322601Y115209D01*
X322499Y115166D01*
X322396Y115126D01*
X322291Y115090D01*
X322185Y115058D01*
X322078Y115029D01*
X321970Y115004D01*
X321861Y114983D01*
X321752Y114966D01*
X321642Y114952D01*
X321531Y114943D01*
X321421Y114937D01*
X321310Y114935D01*
X321199Y114937D01*
X321089Y114943D01*
X320978Y114952D01*
X320868Y114966D01*
X320759Y114983D01*
X320650Y115004D01*
X320542Y115029D01*
X320435Y115058D01*
X320329Y115090D01*
X320224Y115126D01*
X320121Y115166D01*
X320019Y115209D01*
X319918Y115256D01*
X319819Y115307D01*
X319723Y115360D01*
X319628Y115417D01*
X319535Y115478D01*
X319444Y115541D01*
X319355Y115608D01*
X319269Y115678D01*
X319186Y115751D01*
X319104Y115826D01*
X319026Y115904D01*
X318951Y115986D01*
X318878Y116069D01*
X318808Y116155D01*
X318741Y116244D01*
X318678Y116335D01*
X318617Y116428D01*
X318560Y116523D01*
X318507Y116619D01*
X318456Y116718D01*
X318409Y116819D01*
X318366Y116921D01*
X318326Y117024D01*
X318290Y117129D01*
X318258Y117235D01*
X318229Y117342D01*
X318204Y117450D01*
X318183Y117559D01*
X318166Y117668D01*
X318152Y117778D01*
X318143Y117889D01*
X318137Y117999D01*
X318135Y118110D01*
X323215Y117475D02*
X325755Y114935D01*
X335546Y123508D02*
X335544Y123612D01*
X335538Y123717D01*
X335529Y123821D01*
X335516Y123924D01*
X335498Y124027D01*
X335478Y124129D01*
X335453Y124231D01*
X335425Y124331D01*
X335393Y124431D01*
X335357Y124529D01*
X335318Y124626D01*
X335276Y124721D01*
X335230Y124815D01*
X335180Y124907D01*
X335128Y124997D01*
X335072Y125085D01*
X335012Y125171D01*
X334950Y125255D01*
X334885Y125336D01*
X334817Y125415D01*
X334745Y125492D01*
X334672Y125565D01*
X334595Y125637D01*
X334516Y125705D01*
X334435Y125770D01*
X334351Y125832D01*
X334265Y125892D01*
X334177Y125948D01*
X334087Y126000D01*
X333995Y126050D01*
X333901Y126096D01*
X333806Y126138D01*
X333709Y126177D01*
X333611Y126213D01*
X333511Y126245D01*
X333411Y126273D01*
X333309Y126298D01*
X333207Y126318D01*
X333104Y126336D01*
X333001Y126349D01*
X332897Y126358D01*
X332792Y126364D01*
X332688Y126366D01*
X332688Y126365D02*
X332570Y126363D01*
X332451Y126357D01*
X332333Y126348D01*
X332216Y126335D01*
X332099Y126317D01*
X331982Y126297D01*
X331866Y126272D01*
X331751Y126244D01*
X331638Y126211D01*
X331525Y126176D01*
X331413Y126136D01*
X331303Y126094D01*
X331194Y126047D01*
X331086Y125997D01*
X330981Y125944D01*
X330877Y125887D01*
X330775Y125827D01*
X330675Y125764D01*
X330577Y125697D01*
X330481Y125628D01*
X330388Y125555D01*
X330297Y125479D01*
X330208Y125401D01*
X330122Y125319D01*
X330039Y125235D01*
X329958Y125149D01*
X329881Y125059D01*
X329806Y124968D01*
X329734Y124874D01*
X329665Y124777D01*
X329600Y124679D01*
X329537Y124578D01*
X329478Y124475D01*
X329422Y124371D01*
X329370Y124265D01*
X329321Y124157D01*
X329276Y124048D01*
X329234Y123937D01*
X329196Y123825D01*
X334593Y121286D02*
X334669Y121361D01*
X334744Y121440D01*
X334815Y121521D01*
X334884Y121605D01*
X334949Y121691D01*
X335011Y121779D01*
X335071Y121869D01*
X335127Y121961D01*
X335180Y122056D01*
X335229Y122152D01*
X335275Y122250D01*
X335318Y122349D01*
X335357Y122450D01*
X335392Y122552D01*
X335424Y122655D01*
X335452Y122759D01*
X335477Y122864D01*
X335498Y122971D01*
X335515Y123077D01*
X335528Y123184D01*
X335537Y123292D01*
X335543Y123400D01*
X335545Y123508D01*
X334593Y121285D02*
X329196Y114935D01*
X335546Y114935D01*
D10*
X317500Y137160D02*
X317500Y142240D01*
X342900Y142240D02*
X342900Y137160D01*
X342900Y142240D02*
X341630Y142240D01*
X341630Y137160D02*
X342900Y137160D01*
X318770Y137160D02*
X317500Y137160D01*
X317500Y142240D02*
X318770Y142240D01*
D11*
X318135Y156210D02*
X318135Y161290D01*
X318137Y161401D01*
X318143Y161511D01*
X318152Y161622D01*
X318166Y161732D01*
X318183Y161841D01*
X318204Y161950D01*
X318229Y162058D01*
X318258Y162165D01*
X318290Y162271D01*
X318326Y162376D01*
X318366Y162479D01*
X318409Y162581D01*
X318456Y162682D01*
X318507Y162781D01*
X318560Y162878D01*
X318617Y162972D01*
X318678Y163065D01*
X318741Y163156D01*
X318808Y163245D01*
X318878Y163331D01*
X318951Y163414D01*
X319026Y163496D01*
X319104Y163574D01*
X319186Y163649D01*
X319269Y163722D01*
X319355Y163792D01*
X319444Y163859D01*
X319535Y163922D01*
X319628Y163983D01*
X319723Y164040D01*
X319819Y164093D01*
X319918Y164144D01*
X320019Y164191D01*
X320121Y164234D01*
X320224Y164274D01*
X320329Y164310D01*
X320435Y164342D01*
X320542Y164371D01*
X320650Y164396D01*
X320759Y164417D01*
X320868Y164434D01*
X320978Y164448D01*
X321089Y164457D01*
X321199Y164463D01*
X321310Y164465D01*
X321421Y164463D01*
X321531Y164457D01*
X321642Y164448D01*
X321752Y164434D01*
X321861Y164417D01*
X321970Y164396D01*
X322078Y164371D01*
X322185Y164342D01*
X322291Y164310D01*
X322396Y164274D01*
X322499Y164234D01*
X322601Y164191D01*
X322702Y164144D01*
X322801Y164093D01*
X322898Y164040D01*
X322992Y163983D01*
X323085Y163922D01*
X323176Y163859D01*
X323265Y163792D01*
X323351Y163722D01*
X323434Y163649D01*
X323516Y163574D01*
X323594Y163496D01*
X323669Y163414D01*
X323742Y163331D01*
X323812Y163245D01*
X323879Y163156D01*
X323942Y163065D01*
X324003Y162972D01*
X324060Y162878D01*
X324113Y162781D01*
X324164Y162682D01*
X324211Y162581D01*
X324254Y162479D01*
X324294Y162376D01*
X324330Y162271D01*
X324362Y162165D01*
X324391Y162058D01*
X324416Y161950D01*
X324437Y161841D01*
X324454Y161732D01*
X324468Y161622D01*
X324477Y161511D01*
X324483Y161401D01*
X324485Y161290D01*
X324485Y156210D01*
X324483Y156099D01*
X324477Y155989D01*
X324468Y155878D01*
X324454Y155768D01*
X324437Y155659D01*
X324416Y155550D01*
X324391Y155442D01*
X324362Y155335D01*
X324330Y155229D01*
X324294Y155124D01*
X324254Y155021D01*
X324211Y154919D01*
X324164Y154818D01*
X324113Y154719D01*
X324060Y154622D01*
X324003Y154528D01*
X323942Y154435D01*
X323879Y154344D01*
X323812Y154255D01*
X323742Y154169D01*
X323669Y154086D01*
X323594Y154004D01*
X323516Y153926D01*
X323434Y153851D01*
X323351Y153778D01*
X323265Y153708D01*
X323176Y153641D01*
X323085Y153578D01*
X322992Y153517D01*
X322897Y153460D01*
X322801Y153407D01*
X322702Y153356D01*
X322601Y153309D01*
X322499Y153266D01*
X322396Y153226D01*
X322291Y153190D01*
X322185Y153158D01*
X322078Y153129D01*
X321970Y153104D01*
X321861Y153083D01*
X321752Y153066D01*
X321642Y153052D01*
X321531Y153043D01*
X321421Y153037D01*
X321310Y153035D01*
X321199Y153037D01*
X321089Y153043D01*
X320978Y153052D01*
X320868Y153066D01*
X320759Y153083D01*
X320650Y153104D01*
X320542Y153129D01*
X320435Y153158D01*
X320329Y153190D01*
X320224Y153226D01*
X320121Y153266D01*
X320019Y153309D01*
X319918Y153356D01*
X319819Y153407D01*
X319723Y153460D01*
X319628Y153517D01*
X319535Y153578D01*
X319444Y153641D01*
X319355Y153708D01*
X319269Y153778D01*
X319186Y153851D01*
X319104Y153926D01*
X319026Y154004D01*
X318951Y154086D01*
X318878Y154169D01*
X318808Y154255D01*
X318741Y154344D01*
X318678Y154435D01*
X318617Y154528D01*
X318560Y154623D01*
X318507Y154719D01*
X318456Y154818D01*
X318409Y154919D01*
X318366Y155021D01*
X318326Y155124D01*
X318290Y155229D01*
X318258Y155335D01*
X318229Y155442D01*
X318204Y155550D01*
X318183Y155659D01*
X318166Y155768D01*
X318152Y155878D01*
X318143Y155989D01*
X318137Y156099D01*
X318135Y156210D01*
X323215Y155575D02*
X325755Y153035D01*
X329196Y153035D02*
X332371Y153035D01*
X332482Y153037D01*
X332592Y153043D01*
X332703Y153052D01*
X332813Y153066D01*
X332922Y153083D01*
X333031Y153104D01*
X333139Y153129D01*
X333246Y153158D01*
X333352Y153190D01*
X333457Y153226D01*
X333560Y153266D01*
X333662Y153309D01*
X333763Y153356D01*
X333862Y153407D01*
X333959Y153460D01*
X334053Y153517D01*
X334146Y153578D01*
X334237Y153641D01*
X334326Y153708D01*
X334412Y153778D01*
X334495Y153851D01*
X334577Y153926D01*
X334655Y154004D01*
X334730Y154086D01*
X334803Y154169D01*
X334873Y154255D01*
X334940Y154344D01*
X335003Y154435D01*
X335064Y154528D01*
X335121Y154622D01*
X335174Y154719D01*
X335225Y154818D01*
X335272Y154919D01*
X335315Y155021D01*
X335355Y155124D01*
X335391Y155229D01*
X335423Y155335D01*
X335452Y155442D01*
X335477Y155550D01*
X335498Y155659D01*
X335515Y155768D01*
X335529Y155878D01*
X335538Y155989D01*
X335544Y156099D01*
X335546Y156210D01*
X335544Y156321D01*
X335538Y156431D01*
X335529Y156542D01*
X335515Y156652D01*
X335498Y156761D01*
X335477Y156870D01*
X335452Y156978D01*
X335423Y157085D01*
X335391Y157191D01*
X335355Y157296D01*
X335315Y157399D01*
X335272Y157501D01*
X335225Y157602D01*
X335174Y157701D01*
X335121Y157797D01*
X335064Y157892D01*
X335003Y157985D01*
X334940Y158076D01*
X334873Y158165D01*
X334803Y158251D01*
X334730Y158334D01*
X334655Y158416D01*
X334577Y158494D01*
X334495Y158569D01*
X334412Y158642D01*
X334326Y158712D01*
X334237Y158779D01*
X334146Y158842D01*
X334053Y158903D01*
X333959Y158960D01*
X333862Y159013D01*
X333763Y159064D01*
X333662Y159111D01*
X333560Y159154D01*
X333457Y159194D01*
X333352Y159230D01*
X333246Y159262D01*
X333139Y159291D01*
X333031Y159316D01*
X332922Y159337D01*
X332813Y159354D01*
X332703Y159368D01*
X332592Y159377D01*
X332482Y159383D01*
X332371Y159385D01*
X333006Y164465D02*
X329196Y164465D01*
X333006Y164465D02*
X333106Y164463D01*
X333205Y164457D01*
X333305Y164447D01*
X333403Y164434D01*
X333502Y164416D01*
X333599Y164395D01*
X333695Y164370D01*
X333791Y164341D01*
X333885Y164308D01*
X333978Y164272D01*
X334069Y164232D01*
X334159Y164188D01*
X334247Y164141D01*
X334333Y164091D01*
X334417Y164037D01*
X334499Y163980D01*
X334578Y163920D01*
X334656Y163856D01*
X334730Y163790D01*
X334802Y163721D01*
X334871Y163649D01*
X334937Y163575D01*
X335001Y163497D01*
X335061Y163418D01*
X335118Y163336D01*
X335172Y163252D01*
X335222Y163166D01*
X335269Y163078D01*
X335313Y162988D01*
X335353Y162897D01*
X335389Y162804D01*
X335422Y162710D01*
X335451Y162614D01*
X335476Y162518D01*
X335497Y162421D01*
X335515Y162322D01*
X335528Y162224D01*
X335538Y162124D01*
X335544Y162025D01*
X335546Y161925D01*
X335544Y161825D01*
X335538Y161726D01*
X335528Y161626D01*
X335515Y161528D01*
X335497Y161429D01*
X335476Y161332D01*
X335451Y161236D01*
X335422Y161140D01*
X335389Y161046D01*
X335353Y160953D01*
X335313Y160862D01*
X335269Y160772D01*
X335222Y160684D01*
X335172Y160598D01*
X335118Y160514D01*
X335061Y160432D01*
X335001Y160353D01*
X334937Y160275D01*
X334871Y160201D01*
X334802Y160129D01*
X334730Y160060D01*
X334656Y159994D01*
X334578Y159930D01*
X334499Y159870D01*
X334417Y159813D01*
X334333Y159759D01*
X334247Y159709D01*
X334159Y159662D01*
X334069Y159618D01*
X333978Y159578D01*
X333885Y159542D01*
X333791Y159509D01*
X333695Y159480D01*
X333599Y159455D01*
X333502Y159434D01*
X333403Y159416D01*
X333305Y159403D01*
X333205Y159393D01*
X333106Y159387D01*
X333006Y159385D01*
X330466Y159385D01*
D10*
X222250Y219710D02*
X222248Y219610D01*
X222242Y219511D01*
X222232Y219411D01*
X222219Y219313D01*
X222201Y219214D01*
X222180Y219117D01*
X222155Y219021D01*
X222126Y218925D01*
X222093Y218831D01*
X222057Y218738D01*
X222017Y218647D01*
X221973Y218557D01*
X221926Y218469D01*
X221876Y218383D01*
X221822Y218299D01*
X221765Y218217D01*
X221705Y218138D01*
X221641Y218060D01*
X221575Y217986D01*
X221506Y217914D01*
X221434Y217845D01*
X221360Y217779D01*
X221282Y217715D01*
X221203Y217655D01*
X221121Y217598D01*
X221037Y217544D01*
X220951Y217494D01*
X220863Y217447D01*
X220773Y217403D01*
X220682Y217363D01*
X220589Y217327D01*
X220495Y217294D01*
X220399Y217265D01*
X220303Y217240D01*
X220206Y217219D01*
X220107Y217201D01*
X220009Y217188D01*
X219909Y217178D01*
X219810Y217172D01*
X219710Y217170D01*
X222250Y237490D02*
X222248Y237590D01*
X222242Y237689D01*
X222232Y237789D01*
X222219Y237887D01*
X222201Y237986D01*
X222180Y238083D01*
X222155Y238179D01*
X222126Y238275D01*
X222093Y238369D01*
X222057Y238462D01*
X222017Y238553D01*
X221973Y238643D01*
X221926Y238731D01*
X221876Y238817D01*
X221822Y238901D01*
X221765Y238983D01*
X221705Y239062D01*
X221641Y239140D01*
X221575Y239214D01*
X221506Y239286D01*
X221434Y239355D01*
X221360Y239421D01*
X221282Y239485D01*
X221203Y239545D01*
X221121Y239602D01*
X221037Y239656D01*
X220951Y239706D01*
X220863Y239753D01*
X220773Y239797D01*
X220682Y239837D01*
X220589Y239873D01*
X220495Y239906D01*
X220399Y239935D01*
X220303Y239960D01*
X220206Y239981D01*
X220107Y239999D01*
X220009Y240012D01*
X219909Y240022D01*
X219810Y240028D01*
X219710Y240030D01*
X161290Y240030D02*
X161190Y240028D01*
X161091Y240022D01*
X160991Y240012D01*
X160893Y239999D01*
X160794Y239981D01*
X160697Y239960D01*
X160601Y239935D01*
X160505Y239906D01*
X160411Y239873D01*
X160318Y239837D01*
X160227Y239797D01*
X160137Y239753D01*
X160049Y239706D01*
X159963Y239656D01*
X159879Y239602D01*
X159797Y239545D01*
X159718Y239485D01*
X159640Y239421D01*
X159566Y239355D01*
X159494Y239286D01*
X159425Y239214D01*
X159359Y239140D01*
X159295Y239062D01*
X159235Y238983D01*
X159178Y238901D01*
X159124Y238817D01*
X159074Y238731D01*
X159027Y238643D01*
X158983Y238553D01*
X158943Y238462D01*
X158907Y238369D01*
X158874Y238275D01*
X158845Y238179D01*
X158820Y238083D01*
X158799Y237986D01*
X158781Y237887D01*
X158768Y237789D01*
X158758Y237689D01*
X158752Y237590D01*
X158750Y237490D01*
X158750Y219710D02*
X158752Y219610D01*
X158758Y219511D01*
X158768Y219411D01*
X158781Y219313D01*
X158799Y219214D01*
X158820Y219117D01*
X158845Y219021D01*
X158874Y218925D01*
X158907Y218831D01*
X158943Y218738D01*
X158983Y218647D01*
X159027Y218557D01*
X159074Y218469D01*
X159124Y218383D01*
X159178Y218299D01*
X159235Y218217D01*
X159295Y218138D01*
X159359Y218060D01*
X159425Y217986D01*
X159494Y217914D01*
X159566Y217845D01*
X159640Y217779D01*
X159718Y217715D01*
X159797Y217655D01*
X159879Y217598D01*
X159963Y217544D01*
X160049Y217494D01*
X160137Y217447D01*
X160227Y217403D01*
X160318Y217363D01*
X160411Y217327D01*
X160505Y217294D01*
X160601Y217265D01*
X160697Y217240D01*
X160794Y217219D01*
X160893Y217201D01*
X160991Y217188D01*
X161091Y217178D01*
X161190Y217172D01*
X161290Y217170D01*
X222250Y219710D02*
X222250Y237490D01*
X219710Y217170D02*
X215900Y217170D01*
X214630Y218440D01*
X215900Y240030D02*
X219710Y240030D01*
X215900Y240030D02*
X214630Y238760D01*
X166370Y218440D02*
X165100Y217170D01*
X166370Y218440D02*
X214630Y218440D01*
X166370Y238760D02*
X165100Y240030D01*
X166370Y238760D02*
X214630Y238760D01*
X165100Y217170D02*
X161290Y217170D01*
X161290Y240030D02*
X165100Y240030D01*
X158750Y237490D02*
X158750Y219710D01*
D11*
X202648Y212725D02*
X202648Y201295D01*
X202648Y212725D02*
X205823Y212725D01*
X205934Y212723D01*
X206044Y212717D01*
X206155Y212708D01*
X206265Y212694D01*
X206374Y212677D01*
X206483Y212656D01*
X206591Y212631D01*
X206698Y212602D01*
X206804Y212570D01*
X206909Y212534D01*
X207012Y212494D01*
X207114Y212451D01*
X207215Y212404D01*
X207314Y212353D01*
X207411Y212300D01*
X207505Y212243D01*
X207598Y212182D01*
X207689Y212119D01*
X207778Y212052D01*
X207864Y211982D01*
X207947Y211909D01*
X208029Y211834D01*
X208107Y211756D01*
X208182Y211674D01*
X208255Y211591D01*
X208325Y211505D01*
X208392Y211416D01*
X208455Y211325D01*
X208516Y211232D01*
X208573Y211137D01*
X208626Y211041D01*
X208677Y210942D01*
X208724Y210841D01*
X208767Y210739D01*
X208807Y210636D01*
X208843Y210531D01*
X208875Y210425D01*
X208904Y210318D01*
X208929Y210210D01*
X208950Y210101D01*
X208967Y209992D01*
X208981Y209882D01*
X208990Y209771D01*
X208996Y209661D01*
X208998Y209550D01*
X208996Y209439D01*
X208990Y209329D01*
X208981Y209218D01*
X208967Y209108D01*
X208950Y208999D01*
X208929Y208890D01*
X208904Y208782D01*
X208875Y208675D01*
X208843Y208569D01*
X208807Y208464D01*
X208767Y208361D01*
X208724Y208259D01*
X208677Y208158D01*
X208626Y208059D01*
X208573Y207962D01*
X208516Y207868D01*
X208455Y207775D01*
X208392Y207684D01*
X208325Y207595D01*
X208255Y207509D01*
X208182Y207426D01*
X208107Y207344D01*
X208029Y207266D01*
X207947Y207191D01*
X207864Y207118D01*
X207778Y207048D01*
X207689Y206981D01*
X207598Y206918D01*
X207505Y206857D01*
X207410Y206800D01*
X207314Y206747D01*
X207215Y206696D01*
X207114Y206649D01*
X207012Y206606D01*
X206909Y206566D01*
X206804Y206530D01*
X206698Y206498D01*
X206591Y206469D01*
X206483Y206444D01*
X206374Y206423D01*
X206265Y206406D01*
X206155Y206392D01*
X206044Y206383D01*
X205934Y206377D01*
X205823Y206375D01*
X202648Y206375D01*
X206458Y206375D02*
X208998Y201295D01*
X213995Y210185D02*
X217170Y212725D01*
X217170Y201295D01*
X213995Y201295D02*
X220345Y201295D01*
D15*
X154432Y228600D03*
X226568Y228600D03*
D10*
X29210Y57150D02*
X29110Y57152D01*
X29011Y57158D01*
X28911Y57168D01*
X28813Y57181D01*
X28714Y57199D01*
X28617Y57220D01*
X28521Y57245D01*
X28425Y57274D01*
X28331Y57307D01*
X28238Y57343D01*
X28147Y57383D01*
X28057Y57427D01*
X27969Y57474D01*
X27883Y57524D01*
X27799Y57578D01*
X27717Y57635D01*
X27638Y57695D01*
X27560Y57759D01*
X27486Y57825D01*
X27414Y57894D01*
X27345Y57966D01*
X27279Y58040D01*
X27215Y58118D01*
X27155Y58197D01*
X27098Y58279D01*
X27044Y58363D01*
X26994Y58449D01*
X26947Y58537D01*
X26903Y58627D01*
X26863Y58718D01*
X26827Y58811D01*
X26794Y58905D01*
X26765Y59001D01*
X26740Y59097D01*
X26719Y59194D01*
X26701Y59293D01*
X26688Y59391D01*
X26678Y59491D01*
X26672Y59590D01*
X26670Y59690D01*
X46990Y57150D02*
X47090Y57152D01*
X47189Y57158D01*
X47289Y57168D01*
X47387Y57181D01*
X47486Y57199D01*
X47583Y57220D01*
X47679Y57245D01*
X47775Y57274D01*
X47869Y57307D01*
X47962Y57343D01*
X48053Y57383D01*
X48143Y57427D01*
X48231Y57474D01*
X48317Y57524D01*
X48401Y57578D01*
X48483Y57635D01*
X48562Y57695D01*
X48640Y57759D01*
X48714Y57825D01*
X48786Y57894D01*
X48855Y57966D01*
X48921Y58040D01*
X48985Y58118D01*
X49045Y58197D01*
X49102Y58279D01*
X49156Y58363D01*
X49206Y58449D01*
X49253Y58537D01*
X49297Y58627D01*
X49337Y58718D01*
X49373Y58811D01*
X49406Y58905D01*
X49435Y59001D01*
X49460Y59097D01*
X49481Y59194D01*
X49499Y59293D01*
X49512Y59391D01*
X49522Y59491D01*
X49528Y59590D01*
X49530Y59690D01*
X49530Y118110D02*
X49528Y118210D01*
X49522Y118309D01*
X49512Y118409D01*
X49499Y118507D01*
X49481Y118606D01*
X49460Y118703D01*
X49435Y118799D01*
X49406Y118895D01*
X49373Y118989D01*
X49337Y119082D01*
X49297Y119173D01*
X49253Y119263D01*
X49206Y119351D01*
X49156Y119437D01*
X49102Y119521D01*
X49045Y119603D01*
X48985Y119682D01*
X48921Y119760D01*
X48855Y119834D01*
X48786Y119906D01*
X48714Y119975D01*
X48640Y120041D01*
X48562Y120105D01*
X48483Y120165D01*
X48401Y120222D01*
X48317Y120276D01*
X48231Y120326D01*
X48143Y120373D01*
X48053Y120417D01*
X47962Y120457D01*
X47869Y120493D01*
X47775Y120526D01*
X47679Y120555D01*
X47583Y120580D01*
X47486Y120601D01*
X47387Y120619D01*
X47289Y120632D01*
X47189Y120642D01*
X47090Y120648D01*
X46990Y120650D01*
X29210Y120650D02*
X29110Y120648D01*
X29011Y120642D01*
X28911Y120632D01*
X28813Y120619D01*
X28714Y120601D01*
X28617Y120580D01*
X28521Y120555D01*
X28425Y120526D01*
X28331Y120493D01*
X28238Y120457D01*
X28147Y120417D01*
X28057Y120373D01*
X27969Y120326D01*
X27883Y120276D01*
X27799Y120222D01*
X27717Y120165D01*
X27638Y120105D01*
X27560Y120041D01*
X27486Y119975D01*
X27414Y119906D01*
X27345Y119834D01*
X27279Y119760D01*
X27215Y119682D01*
X27155Y119603D01*
X27098Y119521D01*
X27044Y119437D01*
X26994Y119351D01*
X26947Y119263D01*
X26903Y119173D01*
X26863Y119082D01*
X26827Y118989D01*
X26794Y118895D01*
X26765Y118799D01*
X26740Y118703D01*
X26719Y118606D01*
X26701Y118507D01*
X26688Y118409D01*
X26678Y118309D01*
X26672Y118210D01*
X26670Y118110D01*
X29210Y57150D02*
X46990Y57150D01*
X26670Y59690D02*
X26670Y63500D01*
X27940Y64770D01*
X49530Y63500D02*
X49530Y59690D01*
X49530Y63500D02*
X48260Y64770D01*
X27940Y113030D02*
X26670Y114300D01*
X27940Y113030D02*
X27940Y64770D01*
X48260Y113030D02*
X49530Y114300D01*
X48260Y113030D02*
X48260Y64770D01*
X26670Y114300D02*
X26670Y118110D01*
X49530Y118110D02*
X49530Y114300D01*
X46990Y120650D02*
X29210Y120650D01*
D11*
X22225Y59055D02*
X10795Y59055D01*
X10795Y62230D01*
X10797Y62341D01*
X10803Y62451D01*
X10812Y62562D01*
X10826Y62672D01*
X10843Y62781D01*
X10864Y62890D01*
X10889Y62998D01*
X10918Y63105D01*
X10950Y63211D01*
X10986Y63316D01*
X11026Y63419D01*
X11069Y63521D01*
X11116Y63622D01*
X11167Y63721D01*
X11220Y63817D01*
X11277Y63912D01*
X11338Y64005D01*
X11401Y64096D01*
X11468Y64185D01*
X11538Y64271D01*
X11611Y64354D01*
X11686Y64436D01*
X11764Y64514D01*
X11846Y64589D01*
X11929Y64662D01*
X12015Y64732D01*
X12104Y64799D01*
X12195Y64862D01*
X12288Y64923D01*
X12382Y64980D01*
X12479Y65033D01*
X12578Y65084D01*
X12679Y65131D01*
X12781Y65174D01*
X12884Y65214D01*
X12989Y65250D01*
X13095Y65282D01*
X13202Y65311D01*
X13310Y65336D01*
X13419Y65357D01*
X13528Y65374D01*
X13638Y65388D01*
X13749Y65397D01*
X13859Y65403D01*
X13970Y65405D01*
X14081Y65403D01*
X14191Y65397D01*
X14302Y65388D01*
X14412Y65374D01*
X14521Y65357D01*
X14630Y65336D01*
X14738Y65311D01*
X14845Y65282D01*
X14951Y65250D01*
X15056Y65214D01*
X15159Y65174D01*
X15261Y65131D01*
X15362Y65084D01*
X15461Y65033D01*
X15557Y64980D01*
X15652Y64923D01*
X15745Y64862D01*
X15836Y64799D01*
X15925Y64732D01*
X16011Y64662D01*
X16094Y64589D01*
X16176Y64514D01*
X16254Y64436D01*
X16329Y64354D01*
X16402Y64271D01*
X16472Y64185D01*
X16539Y64096D01*
X16602Y64005D01*
X16663Y63912D01*
X16720Y63818D01*
X16773Y63721D01*
X16824Y63622D01*
X16871Y63521D01*
X16914Y63419D01*
X16954Y63316D01*
X16990Y63211D01*
X17022Y63105D01*
X17051Y62998D01*
X17076Y62890D01*
X17097Y62781D01*
X17114Y62672D01*
X17128Y62562D01*
X17137Y62451D01*
X17143Y62341D01*
X17145Y62230D01*
X17145Y59055D01*
X17145Y62865D02*
X22225Y65405D01*
X13653Y76753D02*
X13549Y76751D01*
X13444Y76745D01*
X13340Y76736D01*
X13237Y76723D01*
X13134Y76705D01*
X13032Y76685D01*
X12930Y76660D01*
X12830Y76632D01*
X12730Y76600D01*
X12632Y76564D01*
X12535Y76525D01*
X12440Y76483D01*
X12346Y76437D01*
X12254Y76387D01*
X12164Y76335D01*
X12076Y76279D01*
X11990Y76219D01*
X11906Y76157D01*
X11825Y76092D01*
X11746Y76024D01*
X11669Y75952D01*
X11596Y75879D01*
X11524Y75802D01*
X11456Y75723D01*
X11391Y75642D01*
X11329Y75558D01*
X11269Y75472D01*
X11213Y75384D01*
X11161Y75294D01*
X11111Y75202D01*
X11065Y75108D01*
X11023Y75013D01*
X10984Y74916D01*
X10948Y74818D01*
X10916Y74718D01*
X10888Y74618D01*
X10863Y74516D01*
X10843Y74414D01*
X10825Y74311D01*
X10812Y74208D01*
X10803Y74104D01*
X10797Y73999D01*
X10795Y73895D01*
X10797Y73777D01*
X10803Y73658D01*
X10812Y73540D01*
X10825Y73423D01*
X10843Y73306D01*
X10863Y73189D01*
X10888Y73073D01*
X10916Y72958D01*
X10949Y72845D01*
X10984Y72732D01*
X11024Y72620D01*
X11066Y72510D01*
X11113Y72401D01*
X11163Y72293D01*
X11216Y72188D01*
X11273Y72084D01*
X11333Y71982D01*
X11396Y71882D01*
X11463Y71784D01*
X11532Y71688D01*
X11605Y71595D01*
X11681Y71504D01*
X11759Y71415D01*
X11841Y71329D01*
X11925Y71246D01*
X12011Y71165D01*
X12101Y71088D01*
X12192Y71013D01*
X12286Y70941D01*
X12383Y70872D01*
X12481Y70807D01*
X12582Y70744D01*
X12685Y70685D01*
X12789Y70629D01*
X12895Y70577D01*
X13003Y70528D01*
X13112Y70483D01*
X13223Y70441D01*
X13335Y70403D01*
X15875Y75800D02*
X15800Y75876D01*
X15721Y75951D01*
X15640Y76022D01*
X15556Y76091D01*
X15470Y76156D01*
X15382Y76218D01*
X15292Y76278D01*
X15200Y76334D01*
X15105Y76387D01*
X15009Y76436D01*
X14911Y76482D01*
X14812Y76525D01*
X14711Y76564D01*
X14609Y76599D01*
X14506Y76631D01*
X14402Y76659D01*
X14297Y76684D01*
X14190Y76705D01*
X14084Y76722D01*
X13977Y76735D01*
X13869Y76744D01*
X13761Y76750D01*
X13653Y76752D01*
X15875Y75800D02*
X22225Y70402D01*
X22225Y76752D01*
D16*
X38100Y124968D03*
X38100Y52832D03*
D10*
X283210Y242570D02*
X283310Y242572D01*
X283409Y242578D01*
X283509Y242588D01*
X283607Y242601D01*
X283706Y242619D01*
X283803Y242640D01*
X283899Y242665D01*
X283995Y242694D01*
X284089Y242727D01*
X284182Y242763D01*
X284273Y242803D01*
X284363Y242847D01*
X284451Y242894D01*
X284537Y242944D01*
X284621Y242998D01*
X284703Y243055D01*
X284782Y243115D01*
X284860Y243179D01*
X284934Y243245D01*
X285006Y243314D01*
X285075Y243386D01*
X285141Y243460D01*
X285205Y243538D01*
X285265Y243617D01*
X285322Y243699D01*
X285376Y243783D01*
X285426Y243869D01*
X285473Y243957D01*
X285517Y244047D01*
X285557Y244138D01*
X285593Y244231D01*
X285626Y244325D01*
X285655Y244421D01*
X285680Y244517D01*
X285701Y244614D01*
X285719Y244713D01*
X285732Y244811D01*
X285742Y244911D01*
X285748Y245010D01*
X285750Y245110D01*
X285750Y262890D02*
X285748Y262990D01*
X285742Y263089D01*
X285732Y263189D01*
X285719Y263287D01*
X285701Y263386D01*
X285680Y263483D01*
X285655Y263579D01*
X285626Y263675D01*
X285593Y263769D01*
X285557Y263862D01*
X285517Y263953D01*
X285473Y264043D01*
X285426Y264131D01*
X285376Y264217D01*
X285322Y264301D01*
X285265Y264383D01*
X285205Y264462D01*
X285141Y264540D01*
X285075Y264614D01*
X285006Y264686D01*
X284934Y264755D01*
X284860Y264821D01*
X284782Y264885D01*
X284703Y264945D01*
X284621Y265002D01*
X284537Y265056D01*
X284451Y265106D01*
X284363Y265153D01*
X284273Y265197D01*
X284182Y265237D01*
X284089Y265273D01*
X283995Y265306D01*
X283899Y265335D01*
X283803Y265360D01*
X283706Y265381D01*
X283607Y265399D01*
X283509Y265412D01*
X283409Y265422D01*
X283310Y265428D01*
X283210Y265430D01*
X224790Y265430D02*
X224690Y265428D01*
X224591Y265422D01*
X224491Y265412D01*
X224393Y265399D01*
X224294Y265381D01*
X224197Y265360D01*
X224101Y265335D01*
X224005Y265306D01*
X223911Y265273D01*
X223818Y265237D01*
X223727Y265197D01*
X223637Y265153D01*
X223549Y265106D01*
X223463Y265056D01*
X223379Y265002D01*
X223297Y264945D01*
X223218Y264885D01*
X223140Y264821D01*
X223066Y264755D01*
X222994Y264686D01*
X222925Y264614D01*
X222859Y264540D01*
X222795Y264462D01*
X222735Y264383D01*
X222678Y264301D01*
X222624Y264217D01*
X222574Y264131D01*
X222527Y264043D01*
X222483Y263953D01*
X222443Y263862D01*
X222407Y263769D01*
X222374Y263675D01*
X222345Y263579D01*
X222320Y263483D01*
X222299Y263386D01*
X222281Y263287D01*
X222268Y263189D01*
X222258Y263089D01*
X222252Y262990D01*
X222250Y262890D01*
X222250Y245110D02*
X222252Y245010D01*
X222258Y244911D01*
X222268Y244811D01*
X222281Y244713D01*
X222299Y244614D01*
X222320Y244517D01*
X222345Y244421D01*
X222374Y244325D01*
X222407Y244231D01*
X222443Y244138D01*
X222483Y244047D01*
X222527Y243957D01*
X222574Y243869D01*
X222624Y243783D01*
X222678Y243699D01*
X222735Y243617D01*
X222795Y243538D01*
X222859Y243460D01*
X222925Y243386D01*
X222994Y243314D01*
X223066Y243245D01*
X223140Y243179D01*
X223218Y243115D01*
X223297Y243055D01*
X223379Y242998D01*
X223463Y242944D01*
X223549Y242894D01*
X223637Y242847D01*
X223727Y242803D01*
X223818Y242763D01*
X223911Y242727D01*
X224005Y242694D01*
X224101Y242665D01*
X224197Y242640D01*
X224294Y242619D01*
X224393Y242601D01*
X224491Y242588D01*
X224591Y242578D01*
X224690Y242572D01*
X224790Y242570D01*
X285750Y245110D02*
X285750Y262890D01*
X283210Y242570D02*
X279400Y242570D01*
X278130Y243840D01*
X279400Y265430D02*
X283210Y265430D01*
X279400Y265430D02*
X278130Y264160D01*
X229870Y243840D02*
X228600Y242570D01*
X229870Y243840D02*
X278130Y243840D01*
X229870Y264160D02*
X228600Y265430D01*
X229870Y264160D02*
X278130Y264160D01*
X228600Y242570D02*
X224790Y242570D01*
X224790Y265430D02*
X228600Y265430D01*
X222250Y262890D02*
X222250Y245110D01*
D11*
X266148Y238125D02*
X266148Y226695D01*
X266148Y238125D02*
X269323Y238125D01*
X269434Y238123D01*
X269544Y238117D01*
X269655Y238108D01*
X269765Y238094D01*
X269874Y238077D01*
X269983Y238056D01*
X270091Y238031D01*
X270198Y238002D01*
X270304Y237970D01*
X270409Y237934D01*
X270512Y237894D01*
X270614Y237851D01*
X270715Y237804D01*
X270814Y237753D01*
X270911Y237700D01*
X271005Y237643D01*
X271098Y237582D01*
X271189Y237519D01*
X271278Y237452D01*
X271364Y237382D01*
X271447Y237309D01*
X271529Y237234D01*
X271607Y237156D01*
X271682Y237074D01*
X271755Y236991D01*
X271825Y236905D01*
X271892Y236816D01*
X271955Y236725D01*
X272016Y236632D01*
X272073Y236537D01*
X272126Y236441D01*
X272177Y236342D01*
X272224Y236241D01*
X272267Y236139D01*
X272307Y236036D01*
X272343Y235931D01*
X272375Y235825D01*
X272404Y235718D01*
X272429Y235610D01*
X272450Y235501D01*
X272467Y235392D01*
X272481Y235282D01*
X272490Y235171D01*
X272496Y235061D01*
X272498Y234950D01*
X272496Y234839D01*
X272490Y234729D01*
X272481Y234618D01*
X272467Y234508D01*
X272450Y234399D01*
X272429Y234290D01*
X272404Y234182D01*
X272375Y234075D01*
X272343Y233969D01*
X272307Y233864D01*
X272267Y233761D01*
X272224Y233659D01*
X272177Y233558D01*
X272126Y233459D01*
X272073Y233362D01*
X272016Y233268D01*
X271955Y233175D01*
X271892Y233084D01*
X271825Y232995D01*
X271755Y232909D01*
X271682Y232826D01*
X271607Y232744D01*
X271529Y232666D01*
X271447Y232591D01*
X271364Y232518D01*
X271278Y232448D01*
X271189Y232381D01*
X271098Y232318D01*
X271005Y232257D01*
X270911Y232200D01*
X270814Y232147D01*
X270715Y232096D01*
X270614Y232049D01*
X270512Y232006D01*
X270409Y231966D01*
X270304Y231930D01*
X270198Y231898D01*
X270091Y231869D01*
X269983Y231844D01*
X269874Y231823D01*
X269765Y231806D01*
X269655Y231792D01*
X269544Y231783D01*
X269434Y231777D01*
X269323Y231775D01*
X266148Y231775D01*
X269958Y231775D02*
X272498Y226695D01*
X277495Y226695D02*
X280670Y226695D01*
X280781Y226697D01*
X280891Y226703D01*
X281002Y226712D01*
X281112Y226726D01*
X281221Y226743D01*
X281330Y226764D01*
X281438Y226789D01*
X281545Y226818D01*
X281651Y226850D01*
X281756Y226886D01*
X281859Y226926D01*
X281961Y226969D01*
X282062Y227016D01*
X282161Y227067D01*
X282258Y227120D01*
X282352Y227177D01*
X282445Y227238D01*
X282536Y227301D01*
X282625Y227368D01*
X282711Y227438D01*
X282794Y227511D01*
X282876Y227586D01*
X282954Y227664D01*
X283029Y227746D01*
X283102Y227829D01*
X283172Y227915D01*
X283239Y228004D01*
X283302Y228095D01*
X283363Y228188D01*
X283420Y228282D01*
X283473Y228379D01*
X283524Y228478D01*
X283571Y228579D01*
X283614Y228681D01*
X283654Y228784D01*
X283690Y228889D01*
X283722Y228995D01*
X283751Y229102D01*
X283776Y229210D01*
X283797Y229319D01*
X283814Y229428D01*
X283828Y229538D01*
X283837Y229649D01*
X283843Y229759D01*
X283845Y229870D01*
X283843Y229981D01*
X283837Y230091D01*
X283828Y230202D01*
X283814Y230312D01*
X283797Y230421D01*
X283776Y230530D01*
X283751Y230638D01*
X283722Y230745D01*
X283690Y230851D01*
X283654Y230956D01*
X283614Y231059D01*
X283571Y231161D01*
X283524Y231262D01*
X283473Y231361D01*
X283420Y231457D01*
X283363Y231552D01*
X283302Y231645D01*
X283239Y231736D01*
X283172Y231825D01*
X283102Y231911D01*
X283029Y231994D01*
X282954Y232076D01*
X282876Y232154D01*
X282794Y232229D01*
X282711Y232302D01*
X282625Y232372D01*
X282536Y232439D01*
X282445Y232502D01*
X282352Y232563D01*
X282258Y232620D01*
X282161Y232673D01*
X282062Y232724D01*
X281961Y232771D01*
X281859Y232814D01*
X281756Y232854D01*
X281651Y232890D01*
X281545Y232922D01*
X281438Y232951D01*
X281330Y232976D01*
X281221Y232997D01*
X281112Y233014D01*
X281002Y233028D01*
X280891Y233037D01*
X280781Y233043D01*
X280670Y233045D01*
X281305Y238125D02*
X277495Y238125D01*
X281305Y238125D02*
X281405Y238123D01*
X281504Y238117D01*
X281604Y238107D01*
X281702Y238094D01*
X281801Y238076D01*
X281898Y238055D01*
X281994Y238030D01*
X282090Y238001D01*
X282184Y237968D01*
X282277Y237932D01*
X282368Y237892D01*
X282458Y237848D01*
X282546Y237801D01*
X282632Y237751D01*
X282716Y237697D01*
X282798Y237640D01*
X282877Y237580D01*
X282955Y237516D01*
X283029Y237450D01*
X283101Y237381D01*
X283170Y237309D01*
X283236Y237235D01*
X283300Y237157D01*
X283360Y237078D01*
X283417Y236996D01*
X283471Y236912D01*
X283521Y236826D01*
X283568Y236738D01*
X283612Y236648D01*
X283652Y236557D01*
X283688Y236464D01*
X283721Y236370D01*
X283750Y236274D01*
X283775Y236178D01*
X283796Y236081D01*
X283814Y235982D01*
X283827Y235884D01*
X283837Y235784D01*
X283843Y235685D01*
X283845Y235585D01*
X283843Y235485D01*
X283837Y235386D01*
X283827Y235286D01*
X283814Y235188D01*
X283796Y235089D01*
X283775Y234992D01*
X283750Y234896D01*
X283721Y234800D01*
X283688Y234706D01*
X283652Y234613D01*
X283612Y234522D01*
X283568Y234432D01*
X283521Y234344D01*
X283471Y234258D01*
X283417Y234174D01*
X283360Y234092D01*
X283300Y234013D01*
X283236Y233935D01*
X283170Y233861D01*
X283101Y233789D01*
X283029Y233720D01*
X282955Y233654D01*
X282877Y233590D01*
X282798Y233530D01*
X282716Y233473D01*
X282632Y233419D01*
X282546Y233369D01*
X282458Y233322D01*
X282368Y233278D01*
X282277Y233238D01*
X282184Y233202D01*
X282090Y233169D01*
X281994Y233140D01*
X281898Y233115D01*
X281801Y233094D01*
X281702Y233076D01*
X281604Y233063D01*
X281504Y233053D01*
X281405Y233047D01*
X281305Y233045D01*
X278765Y233045D01*
D15*
X217932Y254000D03*
X290068Y254000D03*
D10*
X49530Y245110D02*
X49528Y245210D01*
X49522Y245309D01*
X49512Y245409D01*
X49499Y245507D01*
X49481Y245606D01*
X49460Y245703D01*
X49435Y245799D01*
X49406Y245895D01*
X49373Y245989D01*
X49337Y246082D01*
X49297Y246173D01*
X49253Y246263D01*
X49206Y246351D01*
X49156Y246437D01*
X49102Y246521D01*
X49045Y246603D01*
X48985Y246682D01*
X48921Y246760D01*
X48855Y246834D01*
X48786Y246906D01*
X48714Y246975D01*
X48640Y247041D01*
X48562Y247105D01*
X48483Y247165D01*
X48401Y247222D01*
X48317Y247276D01*
X48231Y247326D01*
X48143Y247373D01*
X48053Y247417D01*
X47962Y247457D01*
X47869Y247493D01*
X47775Y247526D01*
X47679Y247555D01*
X47583Y247580D01*
X47486Y247601D01*
X47387Y247619D01*
X47289Y247632D01*
X47189Y247642D01*
X47090Y247648D01*
X46990Y247650D01*
X29210Y247650D02*
X29110Y247648D01*
X29011Y247642D01*
X28911Y247632D01*
X28813Y247619D01*
X28714Y247601D01*
X28617Y247580D01*
X28521Y247555D01*
X28425Y247526D01*
X28331Y247493D01*
X28238Y247457D01*
X28147Y247417D01*
X28057Y247373D01*
X27969Y247326D01*
X27883Y247276D01*
X27799Y247222D01*
X27717Y247165D01*
X27638Y247105D01*
X27560Y247041D01*
X27486Y246975D01*
X27414Y246906D01*
X27345Y246834D01*
X27279Y246760D01*
X27215Y246682D01*
X27155Y246603D01*
X27098Y246521D01*
X27044Y246437D01*
X26994Y246351D01*
X26947Y246263D01*
X26903Y246173D01*
X26863Y246082D01*
X26827Y245989D01*
X26794Y245895D01*
X26765Y245799D01*
X26740Y245703D01*
X26719Y245606D01*
X26701Y245507D01*
X26688Y245409D01*
X26678Y245309D01*
X26672Y245210D01*
X26670Y245110D01*
X26670Y186690D02*
X26672Y186590D01*
X26678Y186491D01*
X26688Y186391D01*
X26701Y186293D01*
X26719Y186194D01*
X26740Y186097D01*
X26765Y186001D01*
X26794Y185905D01*
X26827Y185811D01*
X26863Y185718D01*
X26903Y185627D01*
X26947Y185537D01*
X26994Y185449D01*
X27044Y185363D01*
X27098Y185279D01*
X27155Y185197D01*
X27215Y185118D01*
X27279Y185040D01*
X27345Y184966D01*
X27414Y184894D01*
X27486Y184825D01*
X27560Y184759D01*
X27638Y184695D01*
X27717Y184635D01*
X27799Y184578D01*
X27883Y184524D01*
X27969Y184474D01*
X28057Y184427D01*
X28147Y184383D01*
X28238Y184343D01*
X28331Y184307D01*
X28425Y184274D01*
X28521Y184245D01*
X28617Y184220D01*
X28714Y184199D01*
X28813Y184181D01*
X28911Y184168D01*
X29011Y184158D01*
X29110Y184152D01*
X29210Y184150D01*
X46990Y184150D02*
X47090Y184152D01*
X47189Y184158D01*
X47289Y184168D01*
X47387Y184181D01*
X47486Y184199D01*
X47583Y184220D01*
X47679Y184245D01*
X47775Y184274D01*
X47869Y184307D01*
X47962Y184343D01*
X48053Y184383D01*
X48143Y184427D01*
X48231Y184474D01*
X48317Y184524D01*
X48401Y184578D01*
X48483Y184635D01*
X48562Y184695D01*
X48640Y184759D01*
X48714Y184825D01*
X48786Y184894D01*
X48855Y184966D01*
X48921Y185040D01*
X48985Y185118D01*
X49045Y185197D01*
X49102Y185279D01*
X49156Y185363D01*
X49206Y185449D01*
X49253Y185537D01*
X49297Y185627D01*
X49337Y185718D01*
X49373Y185811D01*
X49406Y185905D01*
X49435Y186001D01*
X49460Y186097D01*
X49481Y186194D01*
X49499Y186293D01*
X49512Y186391D01*
X49522Y186491D01*
X49528Y186590D01*
X49530Y186690D01*
X46990Y247650D02*
X29210Y247650D01*
X49530Y245110D02*
X49530Y241300D01*
X48260Y240030D01*
X26670Y241300D02*
X26670Y245110D01*
X26670Y241300D02*
X27940Y240030D01*
X48260Y191770D02*
X49530Y190500D01*
X48260Y191770D02*
X48260Y240030D01*
X27940Y191770D02*
X26670Y190500D01*
X27940Y191770D02*
X27940Y240030D01*
X49530Y190500D02*
X49530Y186690D01*
X26670Y186690D02*
X26670Y190500D01*
X29210Y184150D02*
X46990Y184150D01*
D11*
X53975Y228048D02*
X65405Y228048D01*
X53975Y228048D02*
X53975Y231223D01*
X53977Y231334D01*
X53983Y231444D01*
X53992Y231555D01*
X54006Y231665D01*
X54023Y231774D01*
X54044Y231883D01*
X54069Y231991D01*
X54098Y232098D01*
X54130Y232204D01*
X54166Y232309D01*
X54206Y232412D01*
X54249Y232514D01*
X54296Y232615D01*
X54347Y232714D01*
X54400Y232811D01*
X54457Y232905D01*
X54518Y232998D01*
X54581Y233089D01*
X54648Y233178D01*
X54718Y233264D01*
X54791Y233347D01*
X54866Y233429D01*
X54944Y233507D01*
X55026Y233582D01*
X55109Y233655D01*
X55195Y233725D01*
X55284Y233792D01*
X55375Y233855D01*
X55468Y233916D01*
X55562Y233973D01*
X55659Y234026D01*
X55758Y234077D01*
X55859Y234124D01*
X55961Y234167D01*
X56064Y234207D01*
X56169Y234243D01*
X56275Y234275D01*
X56382Y234304D01*
X56490Y234329D01*
X56599Y234350D01*
X56708Y234367D01*
X56818Y234381D01*
X56929Y234390D01*
X57039Y234396D01*
X57150Y234398D01*
X57261Y234396D01*
X57371Y234390D01*
X57482Y234381D01*
X57592Y234367D01*
X57701Y234350D01*
X57810Y234329D01*
X57918Y234304D01*
X58025Y234275D01*
X58131Y234243D01*
X58236Y234207D01*
X58339Y234167D01*
X58441Y234124D01*
X58542Y234077D01*
X58641Y234026D01*
X58738Y233973D01*
X58832Y233916D01*
X58925Y233855D01*
X59016Y233792D01*
X59105Y233725D01*
X59191Y233655D01*
X59274Y233582D01*
X59356Y233507D01*
X59434Y233429D01*
X59509Y233347D01*
X59582Y233264D01*
X59652Y233178D01*
X59719Y233089D01*
X59782Y232998D01*
X59843Y232905D01*
X59900Y232811D01*
X59953Y232714D01*
X60004Y232615D01*
X60051Y232514D01*
X60094Y232412D01*
X60134Y232309D01*
X60170Y232204D01*
X60202Y232098D01*
X60231Y231991D01*
X60256Y231883D01*
X60277Y231774D01*
X60294Y231665D01*
X60308Y231555D01*
X60317Y231444D01*
X60323Y231334D01*
X60325Y231223D01*
X60325Y228048D01*
X60325Y231858D02*
X65405Y234398D01*
X62865Y239395D02*
X53975Y241935D01*
X62865Y239395D02*
X62865Y245745D01*
X60325Y243840D02*
X65405Y243840D01*
D16*
X38100Y179832D03*
X38100Y251968D03*
D10*
X95250Y262890D02*
X95252Y262990D01*
X95258Y263089D01*
X95268Y263189D01*
X95281Y263287D01*
X95299Y263386D01*
X95320Y263483D01*
X95345Y263579D01*
X95374Y263675D01*
X95407Y263769D01*
X95443Y263862D01*
X95483Y263953D01*
X95527Y264043D01*
X95574Y264131D01*
X95624Y264217D01*
X95678Y264301D01*
X95735Y264383D01*
X95795Y264462D01*
X95859Y264540D01*
X95925Y264614D01*
X95994Y264686D01*
X96066Y264755D01*
X96140Y264821D01*
X96218Y264885D01*
X96297Y264945D01*
X96379Y265002D01*
X96463Y265056D01*
X96549Y265106D01*
X96637Y265153D01*
X96727Y265197D01*
X96818Y265237D01*
X96911Y265273D01*
X97005Y265306D01*
X97101Y265335D01*
X97197Y265360D01*
X97294Y265381D01*
X97393Y265399D01*
X97491Y265412D01*
X97591Y265422D01*
X97690Y265428D01*
X97790Y265430D01*
X95250Y245110D02*
X95252Y245010D01*
X95258Y244911D01*
X95268Y244811D01*
X95281Y244713D01*
X95299Y244614D01*
X95320Y244517D01*
X95345Y244421D01*
X95374Y244325D01*
X95407Y244231D01*
X95443Y244138D01*
X95483Y244047D01*
X95527Y243957D01*
X95574Y243869D01*
X95624Y243783D01*
X95678Y243699D01*
X95735Y243617D01*
X95795Y243538D01*
X95859Y243460D01*
X95925Y243386D01*
X95994Y243314D01*
X96066Y243245D01*
X96140Y243179D01*
X96218Y243115D01*
X96297Y243055D01*
X96379Y242998D01*
X96463Y242944D01*
X96549Y242894D01*
X96637Y242847D01*
X96727Y242803D01*
X96818Y242763D01*
X96911Y242727D01*
X97005Y242694D01*
X97101Y242665D01*
X97197Y242640D01*
X97294Y242619D01*
X97393Y242601D01*
X97491Y242588D01*
X97591Y242578D01*
X97690Y242572D01*
X97790Y242570D01*
X156210Y242570D02*
X156310Y242572D01*
X156409Y242578D01*
X156509Y242588D01*
X156607Y242601D01*
X156706Y242619D01*
X156803Y242640D01*
X156899Y242665D01*
X156995Y242694D01*
X157089Y242727D01*
X157182Y242763D01*
X157273Y242803D01*
X157363Y242847D01*
X157451Y242894D01*
X157537Y242944D01*
X157621Y242998D01*
X157703Y243055D01*
X157782Y243115D01*
X157860Y243179D01*
X157934Y243245D01*
X158006Y243314D01*
X158075Y243386D01*
X158141Y243460D01*
X158205Y243538D01*
X158265Y243617D01*
X158322Y243699D01*
X158376Y243783D01*
X158426Y243869D01*
X158473Y243957D01*
X158517Y244047D01*
X158557Y244138D01*
X158593Y244231D01*
X158626Y244325D01*
X158655Y244421D01*
X158680Y244517D01*
X158701Y244614D01*
X158719Y244713D01*
X158732Y244811D01*
X158742Y244911D01*
X158748Y245010D01*
X158750Y245110D01*
X158750Y262890D02*
X158748Y262990D01*
X158742Y263089D01*
X158732Y263189D01*
X158719Y263287D01*
X158701Y263386D01*
X158680Y263483D01*
X158655Y263579D01*
X158626Y263675D01*
X158593Y263769D01*
X158557Y263862D01*
X158517Y263953D01*
X158473Y264043D01*
X158426Y264131D01*
X158376Y264217D01*
X158322Y264301D01*
X158265Y264383D01*
X158205Y264462D01*
X158141Y264540D01*
X158075Y264614D01*
X158006Y264686D01*
X157934Y264755D01*
X157860Y264821D01*
X157782Y264885D01*
X157703Y264945D01*
X157621Y265002D01*
X157537Y265056D01*
X157451Y265106D01*
X157363Y265153D01*
X157273Y265197D01*
X157182Y265237D01*
X157089Y265273D01*
X156995Y265306D01*
X156899Y265335D01*
X156803Y265360D01*
X156706Y265381D01*
X156607Y265399D01*
X156509Y265412D01*
X156409Y265422D01*
X156310Y265428D01*
X156210Y265430D01*
X95250Y262890D02*
X95250Y245110D01*
X97790Y265430D02*
X101600Y265430D01*
X102870Y264160D01*
X101600Y242570D02*
X97790Y242570D01*
X101600Y242570D02*
X102870Y243840D01*
X151130Y264160D02*
X152400Y265430D01*
X151130Y264160D02*
X102870Y264160D01*
X151130Y243840D02*
X152400Y242570D01*
X151130Y243840D02*
X102870Y243840D01*
X152400Y265430D02*
X156210Y265430D01*
X156210Y242570D02*
X152400Y242570D01*
X158750Y245110D02*
X158750Y262890D01*
D11*
X97155Y269875D02*
X97155Y281305D01*
X100330Y281305D01*
X100441Y281303D01*
X100551Y281297D01*
X100662Y281288D01*
X100772Y281274D01*
X100881Y281257D01*
X100990Y281236D01*
X101098Y281211D01*
X101205Y281182D01*
X101311Y281150D01*
X101416Y281114D01*
X101519Y281074D01*
X101621Y281031D01*
X101722Y280984D01*
X101821Y280933D01*
X101918Y280880D01*
X102012Y280823D01*
X102105Y280762D01*
X102196Y280699D01*
X102285Y280632D01*
X102371Y280562D01*
X102454Y280489D01*
X102536Y280414D01*
X102614Y280336D01*
X102689Y280254D01*
X102762Y280171D01*
X102832Y280085D01*
X102899Y279996D01*
X102962Y279905D01*
X103023Y279812D01*
X103080Y279717D01*
X103133Y279621D01*
X103184Y279522D01*
X103231Y279421D01*
X103274Y279319D01*
X103314Y279216D01*
X103350Y279111D01*
X103382Y279005D01*
X103411Y278898D01*
X103436Y278790D01*
X103457Y278681D01*
X103474Y278572D01*
X103488Y278462D01*
X103497Y278351D01*
X103503Y278241D01*
X103505Y278130D01*
X103503Y278019D01*
X103497Y277909D01*
X103488Y277798D01*
X103474Y277688D01*
X103457Y277579D01*
X103436Y277470D01*
X103411Y277362D01*
X103382Y277255D01*
X103350Y277149D01*
X103314Y277044D01*
X103274Y276941D01*
X103231Y276839D01*
X103184Y276738D01*
X103133Y276639D01*
X103080Y276542D01*
X103023Y276448D01*
X102962Y276355D01*
X102899Y276264D01*
X102832Y276175D01*
X102762Y276089D01*
X102689Y276006D01*
X102614Y275924D01*
X102536Y275846D01*
X102454Y275771D01*
X102371Y275698D01*
X102285Y275628D01*
X102196Y275561D01*
X102105Y275498D01*
X102012Y275437D01*
X101917Y275380D01*
X101821Y275327D01*
X101722Y275276D01*
X101621Y275229D01*
X101519Y275186D01*
X101416Y275146D01*
X101311Y275110D01*
X101205Y275078D01*
X101098Y275049D01*
X100990Y275024D01*
X100881Y275003D01*
X100772Y274986D01*
X100662Y274972D01*
X100551Y274963D01*
X100441Y274957D01*
X100330Y274955D01*
X97155Y274955D01*
X100965Y274955D02*
X103505Y269875D01*
X108502Y269875D02*
X112312Y269875D01*
X112412Y269877D01*
X112511Y269883D01*
X112611Y269893D01*
X112709Y269906D01*
X112808Y269924D01*
X112905Y269945D01*
X113001Y269970D01*
X113097Y269999D01*
X113191Y270032D01*
X113284Y270068D01*
X113375Y270108D01*
X113465Y270152D01*
X113553Y270199D01*
X113639Y270249D01*
X113723Y270303D01*
X113805Y270360D01*
X113884Y270420D01*
X113962Y270484D01*
X114036Y270550D01*
X114108Y270619D01*
X114177Y270691D01*
X114243Y270765D01*
X114307Y270843D01*
X114367Y270922D01*
X114424Y271004D01*
X114478Y271088D01*
X114528Y271174D01*
X114575Y271262D01*
X114619Y271352D01*
X114659Y271443D01*
X114695Y271536D01*
X114728Y271630D01*
X114757Y271726D01*
X114782Y271822D01*
X114803Y271919D01*
X114821Y272018D01*
X114834Y272116D01*
X114844Y272216D01*
X114850Y272315D01*
X114852Y272415D01*
X114852Y273685D01*
X114850Y273785D01*
X114844Y273884D01*
X114834Y273984D01*
X114821Y274082D01*
X114803Y274181D01*
X114782Y274278D01*
X114757Y274374D01*
X114728Y274470D01*
X114695Y274564D01*
X114659Y274657D01*
X114619Y274748D01*
X114575Y274838D01*
X114528Y274926D01*
X114478Y275012D01*
X114424Y275096D01*
X114367Y275178D01*
X114307Y275257D01*
X114243Y275335D01*
X114177Y275409D01*
X114108Y275481D01*
X114036Y275550D01*
X113962Y275616D01*
X113884Y275680D01*
X113805Y275740D01*
X113723Y275797D01*
X113639Y275851D01*
X113553Y275901D01*
X113465Y275948D01*
X113375Y275992D01*
X113284Y276032D01*
X113191Y276068D01*
X113097Y276101D01*
X113001Y276130D01*
X112905Y276155D01*
X112808Y276176D01*
X112709Y276194D01*
X112611Y276207D01*
X112511Y276217D01*
X112412Y276223D01*
X112312Y276225D01*
X108502Y276225D01*
X108502Y281305D01*
X114852Y281305D01*
D15*
X163068Y254000D03*
X90932Y254000D03*
D10*
X317500Y231140D02*
X317500Y226060D01*
X342900Y226060D02*
X342900Y231140D01*
X341630Y231140D01*
X341630Y226060D02*
X342900Y226060D01*
X318770Y226060D02*
X317500Y226060D01*
X317500Y231140D02*
X318770Y231140D01*
D11*
X321945Y241935D02*
X318135Y253365D01*
X325755Y253365D02*
X321945Y241935D01*
X332703Y241935D02*
X335243Y241935D01*
X332703Y241935D02*
X332603Y241937D01*
X332504Y241943D01*
X332404Y241953D01*
X332306Y241966D01*
X332207Y241984D01*
X332110Y242005D01*
X332014Y242030D01*
X331918Y242059D01*
X331824Y242092D01*
X331731Y242128D01*
X331640Y242168D01*
X331550Y242212D01*
X331462Y242259D01*
X331376Y242309D01*
X331292Y242363D01*
X331210Y242420D01*
X331131Y242480D01*
X331053Y242544D01*
X330979Y242610D01*
X330907Y242679D01*
X330838Y242751D01*
X330772Y242825D01*
X330708Y242903D01*
X330648Y242982D01*
X330591Y243064D01*
X330537Y243148D01*
X330487Y243234D01*
X330440Y243322D01*
X330396Y243412D01*
X330356Y243503D01*
X330320Y243596D01*
X330287Y243690D01*
X330258Y243786D01*
X330233Y243882D01*
X330212Y243979D01*
X330194Y244078D01*
X330181Y244176D01*
X330171Y244276D01*
X330165Y244375D01*
X330163Y244475D01*
X330163Y250825D01*
X330165Y250925D01*
X330171Y251024D01*
X330181Y251124D01*
X330194Y251222D01*
X330212Y251321D01*
X330233Y251418D01*
X330258Y251514D01*
X330287Y251610D01*
X330320Y251704D01*
X330356Y251797D01*
X330396Y251888D01*
X330440Y251978D01*
X330487Y252066D01*
X330537Y252152D01*
X330591Y252236D01*
X330648Y252318D01*
X330708Y252397D01*
X330772Y252475D01*
X330838Y252549D01*
X330907Y252621D01*
X330979Y252690D01*
X331053Y252756D01*
X331131Y252820D01*
X331210Y252880D01*
X331292Y252937D01*
X331376Y252991D01*
X331462Y253041D01*
X331550Y253088D01*
X331640Y253132D01*
X331731Y253172D01*
X331824Y253208D01*
X331918Y253241D01*
X332014Y253270D01*
X332110Y253295D01*
X332207Y253316D01*
X332306Y253334D01*
X332404Y253347D01*
X332504Y253357D01*
X332603Y253363D01*
X332703Y253365D01*
X335243Y253365D01*
X342228Y241935D02*
X344768Y241935D01*
X342228Y241935D02*
X342128Y241937D01*
X342029Y241943D01*
X341929Y241953D01*
X341831Y241966D01*
X341732Y241984D01*
X341635Y242005D01*
X341539Y242030D01*
X341443Y242059D01*
X341349Y242092D01*
X341256Y242128D01*
X341165Y242168D01*
X341075Y242212D01*
X340987Y242259D01*
X340901Y242309D01*
X340817Y242363D01*
X340735Y242420D01*
X340656Y242480D01*
X340578Y242544D01*
X340504Y242610D01*
X340432Y242679D01*
X340363Y242751D01*
X340297Y242825D01*
X340233Y242903D01*
X340173Y242982D01*
X340116Y243064D01*
X340062Y243148D01*
X340012Y243234D01*
X339965Y243322D01*
X339921Y243412D01*
X339881Y243503D01*
X339845Y243596D01*
X339812Y243690D01*
X339783Y243786D01*
X339758Y243882D01*
X339737Y243979D01*
X339719Y244078D01*
X339706Y244176D01*
X339696Y244276D01*
X339690Y244375D01*
X339688Y244475D01*
X339688Y250825D01*
X339690Y250925D01*
X339696Y251024D01*
X339706Y251124D01*
X339719Y251222D01*
X339737Y251321D01*
X339758Y251418D01*
X339783Y251514D01*
X339812Y251610D01*
X339845Y251704D01*
X339881Y251797D01*
X339921Y251888D01*
X339965Y251978D01*
X340012Y252066D01*
X340062Y252152D01*
X340116Y252236D01*
X340173Y252318D01*
X340233Y252397D01*
X340297Y252475D01*
X340363Y252549D01*
X340432Y252621D01*
X340504Y252690D01*
X340578Y252756D01*
X340656Y252820D01*
X340735Y252880D01*
X340817Y252937D01*
X340901Y252991D01*
X340987Y253041D01*
X341075Y253088D01*
X341165Y253132D01*
X341256Y253172D01*
X341349Y253208D01*
X341443Y253241D01*
X341539Y253270D01*
X341635Y253295D01*
X341732Y253316D01*
X341831Y253334D01*
X341929Y253347D01*
X342029Y253357D01*
X342128Y253363D01*
X342228Y253365D01*
X344768Y253365D01*
D10*
X317500Y193040D02*
X317500Y187960D01*
X342900Y187960D02*
X342900Y193040D01*
X341630Y193040D01*
X341630Y187960D02*
X342900Y187960D01*
X318770Y187960D02*
X317500Y187960D01*
X317500Y193040D02*
X318770Y193040D01*
D11*
X322580Y210185D02*
X324485Y210185D01*
X324485Y203835D01*
X320675Y203835D01*
X320575Y203837D01*
X320476Y203843D01*
X320376Y203853D01*
X320278Y203866D01*
X320179Y203884D01*
X320082Y203905D01*
X319986Y203930D01*
X319890Y203959D01*
X319796Y203992D01*
X319703Y204028D01*
X319612Y204068D01*
X319522Y204112D01*
X319434Y204159D01*
X319348Y204209D01*
X319264Y204263D01*
X319182Y204320D01*
X319103Y204380D01*
X319025Y204444D01*
X318951Y204510D01*
X318879Y204579D01*
X318810Y204651D01*
X318744Y204725D01*
X318680Y204803D01*
X318620Y204882D01*
X318563Y204964D01*
X318509Y205048D01*
X318459Y205134D01*
X318412Y205222D01*
X318368Y205312D01*
X318328Y205403D01*
X318292Y205496D01*
X318259Y205590D01*
X318230Y205686D01*
X318205Y205782D01*
X318184Y205879D01*
X318166Y205978D01*
X318153Y206076D01*
X318143Y206176D01*
X318137Y206275D01*
X318135Y206375D01*
X318135Y212725D01*
X318137Y212825D01*
X318143Y212924D01*
X318153Y213024D01*
X318166Y213122D01*
X318184Y213221D01*
X318205Y213318D01*
X318230Y213414D01*
X318259Y213510D01*
X318292Y213604D01*
X318328Y213697D01*
X318368Y213788D01*
X318412Y213878D01*
X318459Y213966D01*
X318509Y214052D01*
X318563Y214136D01*
X318620Y214218D01*
X318680Y214297D01*
X318744Y214375D01*
X318810Y214449D01*
X318879Y214521D01*
X318951Y214590D01*
X319025Y214656D01*
X319103Y214720D01*
X319182Y214780D01*
X319264Y214837D01*
X319348Y214891D01*
X319434Y214941D01*
X319522Y214988D01*
X319612Y215032D01*
X319703Y215072D01*
X319796Y215108D01*
X319890Y215141D01*
X319986Y215170D01*
X320082Y215195D01*
X320179Y215216D01*
X320278Y215234D01*
X320376Y215247D01*
X320476Y215257D01*
X320575Y215263D01*
X320675Y215265D01*
X324485Y215265D01*
X330327Y215265D02*
X330327Y203835D01*
X336677Y203835D02*
X330327Y215265D01*
X336677Y215265D02*
X336677Y203835D01*
X342519Y203835D02*
X342519Y215265D01*
X345694Y215265D01*
X345805Y215263D01*
X345915Y215257D01*
X346026Y215248D01*
X346136Y215234D01*
X346245Y215217D01*
X346354Y215196D01*
X346462Y215171D01*
X346569Y215142D01*
X346675Y215110D01*
X346780Y215074D01*
X346883Y215034D01*
X346985Y214991D01*
X347086Y214944D01*
X347185Y214893D01*
X347282Y214840D01*
X347376Y214783D01*
X347469Y214722D01*
X347560Y214659D01*
X347649Y214592D01*
X347735Y214522D01*
X347818Y214449D01*
X347900Y214374D01*
X347978Y214296D01*
X348053Y214214D01*
X348126Y214131D01*
X348196Y214045D01*
X348263Y213956D01*
X348326Y213865D01*
X348387Y213772D01*
X348444Y213678D01*
X348497Y213581D01*
X348548Y213482D01*
X348595Y213381D01*
X348638Y213279D01*
X348678Y213176D01*
X348714Y213071D01*
X348746Y212965D01*
X348775Y212858D01*
X348800Y212750D01*
X348821Y212641D01*
X348838Y212532D01*
X348852Y212422D01*
X348861Y212311D01*
X348867Y212201D01*
X348869Y212090D01*
X348869Y207010D01*
X348867Y206899D01*
X348861Y206789D01*
X348852Y206678D01*
X348838Y206568D01*
X348821Y206459D01*
X348800Y206350D01*
X348775Y206242D01*
X348746Y206135D01*
X348714Y206029D01*
X348678Y205924D01*
X348638Y205821D01*
X348595Y205719D01*
X348548Y205618D01*
X348497Y205519D01*
X348444Y205422D01*
X348387Y205328D01*
X348326Y205235D01*
X348263Y205144D01*
X348196Y205055D01*
X348126Y204969D01*
X348053Y204886D01*
X347978Y204804D01*
X347900Y204726D01*
X347818Y204651D01*
X347735Y204578D01*
X347649Y204508D01*
X347560Y204441D01*
X347469Y204378D01*
X347376Y204317D01*
X347282Y204260D01*
X347185Y204207D01*
X347086Y204156D01*
X346985Y204109D01*
X346883Y204066D01*
X346780Y204026D01*
X346675Y203990D01*
X346569Y203958D01*
X346462Y203929D01*
X346354Y203904D01*
X346245Y203883D01*
X346136Y203866D01*
X346026Y203852D01*
X345915Y203843D01*
X345805Y203837D01*
X345694Y203835D01*
X342519Y203835D01*
M02*
