G04 EAGLE Gerber X2 export*
%TF.Part,Single*%
%TF.FileFunction,Soldermask,Bot,1*%
%TF.FilePolarity,Negative*%
%TF.GenerationSoftware,Autodesk,EAGLE,9.0.0*%
%TF.CreationDate,2018-07-10T22:09:29Z*%
G75*
%MOMM*%
%FSLAX34Y34*%
%LPD*%
%AMOC8*
5,1,8,0,0,1.08239X$1,22.5*%
G01*
%ADD10P,1.951982X8X112.500000*%
%ADD11C,1.803400*%
%ADD12P,1.951982X8X202.500000*%
%ADD13P,1.649562X8X22.500000*%
%ADD14C,1.524000*%
%ADD15P,2.556822X8X22.500000*%
%ADD16P,1.649562X8X202.500000*%
%ADD17P,1.649562X8X112.500000*%
%ADD18P,1.649562X8X292.500000*%


D10*
X279400Y177800D03*
D11*
X279400Y152400D03*
D12*
X88900Y152400D03*
D11*
X114300Y152400D03*
D13*
X266700Y101600D03*
X292100Y101600D03*
D14*
X159004Y177800D02*
X145796Y177800D01*
X145796Y152400D02*
X159004Y152400D01*
X221996Y152400D02*
X235204Y152400D01*
X235204Y177800D02*
X221996Y177800D01*
X159004Y127000D02*
X145796Y127000D01*
X145796Y101600D02*
X159004Y101600D01*
X221996Y127000D02*
X235204Y127000D01*
X235204Y101600D02*
X221996Y101600D01*
D13*
X177800Y50800D03*
X203200Y50800D03*
D14*
X120904Y25400D02*
X107696Y25400D01*
X107696Y76200D02*
X120904Y76200D01*
X120904Y50800D02*
X107696Y50800D01*
D15*
X330200Y101600D03*
X330200Y139700D03*
D16*
X241300Y228600D03*
X139700Y228600D03*
D17*
X38100Y38100D03*
X38100Y139700D03*
D16*
X304800Y254000D03*
X203200Y254000D03*
D18*
X38100Y266700D03*
X38100Y165100D03*
D13*
X76200Y254000D03*
X177800Y254000D03*
D15*
X330200Y228600D03*
X330200Y190500D03*
M02*
